<svg height="29.433" viewBox="0 0 28.074 29.433" width="28.074" xmlns="http://www.w3.org/2000/svg"><path d="m753.742 618.309 4.437-10.438c.6-1.424 1.279-4.394 2.456-5.415 2.782-2.416 3.473 1.942 3.962 3.516 2.364 7.617 4.356 15.36 6.186 23.12l2.161-.739a103.121 103.121 0 0 0 -12.8-14.643c-3.523-3.316-7.163-6.745-12.26-6.821-.338-.005-2.332.786-1.328 1.177a142.624 142.624 0 0 0 26 7.389q.121-.535.244-1.069a165 165 0 0 1 -25.174 7.962l1.194.584 2.452-1.718c1.052-.2 1.848-1.536.306-1.24a6.936 6.936 0 0 0 -4.845 2.911c-.512.7.889.654 1.193.584a168.961 168.961 0 0 0 25.759-8.162c.462-.188 1.1-.912.244-1.07a140.194 140.194 0 0 1 -25.588-7.255l-1.328 1.177c5.6.085 10.269 5.514 13.929 9.248a104.316 104.316 0 0 1 9.922 11.824c.4.544 2.338.012 2.161-.739q-2.146-9.1-4.708-18.1c-.794-2.768-1.459-9.648-5.232-10.316-2.271-.4-4.021 1.355-5.012 3.153-2.649 4.8-4.426 10.311-6.572 15.358-.3.7 1.929.453 2.242-.281z" fill="#ffc845" transform="translate(-746.276 -600.021)"/></svg>