<svg height="67.232" viewBox="0 0 69.584 67.232" width="69.584" xmlns="http://www.w3.org/2000/svg"><g fill="#1a73e8"><path d="m529.923 87.564c-.143-.04 2.741-9.953 2.956-10.95.114-.526.15-1.792.589-2.156a10.155 10.155 0 0 1 2.369-.212 48.4 48.4 0 0 0 5.043-1.325c8.473-2.422 17.274-3.342 26.017-4.192 3.977-.387 7.971-.472 11.947-.886.023 0 1.454-.187 1.433-.2.364.264.306-.481 0 .139-.263.539-2.221 1.135-2.844 1.374-1.745.669-3.56 1.134-5.3 1.819-4.037 1.591-8.232 2.647-12.341 4.052-3.738 1.278-7.5 2.532-11.224 3.842-2.146.756-4.332 1.332-6.484 2.06-1.845.624-3.811.992-5.613 1.707a12.342 12.342 0 0 0 -3.66 2.461 47.646 47.646 0 0 0 -4.355 3.788c-.128.138-.034.242.137.244h.166c.252 0 .709-.373.26-.379.727.01 1.765-1.511 2.257-1.948.782-.694 1.68-1.247 2.463-1.945 2.138-1.906 4.5-2.267 7.125-3.138 4.436-1.472 8.962-2.682 13.36-4.273 5-1.808 10.057-3.294 15.091-4.969 2.27-.755 4.468-1.714 6.744-2.473a19.854 19.854 0 0 0 5.427-2.575c.236-.17.067-.3-.162-.284-2.816.157-5.625.718-8.453.849-2.727.127-5.428.316-8.147.591-5.8.585-11.607 1.242-17.327 2.4-2.9.588-5.739 1.369-8.585 2.184a36.771 36.771 0 0 1 -5.089.91c-.3.043-.528-.033-.793.138-.487.315-.487 1.371-.592 1.834-.281 1.239-.554 2.478-.87 3.709-.662 2.577-2.161 5.32-2.3 7.966 0 .089.051.117.13.139l.215.061c.213.06.783-.257.409-.362z" transform="translate(-512.018 -64.681)"/><path d="m587.767 67.41a4.073 4.073 0 0 0 -1.407 1.144c-.955.945-2.025 1.781-3.052 2.646-1.888 1.591-3.936 2.956-5.877 4.478a171.588 171.588 0 0 1 -14.073 10.322c-4.421 2.791-9.208 4.775-13.343 8.015-.321.252-.8.8-1.284.6-.412-.166-.884-1.6-1.1-2.079-.517-1.173-.956-2.394-1.362-3.611-.7-2.118-1.281-4.507-2.719-6.252-.123-.149-.539-.029-.621.124l-.083.157c-.148.278.518.208.622.014l.083-.157-.621.124c1.77 2.147 2.355 5.4 3.315 7.974.357.96 1.141 4.174 2.49 4.272 1.194.086 2.673-1.7 3.526-2.327a79.911 79.911 0 0 1 8.461-4.842 112.076 112.076 0 0 0 14.085-9.727c2.29-1.795 4.592-3.544 6.924-5.282 1.119-.833 2.171-1.749 3.236-2.65.822-.7 2.048-2.3 3.059-2.677.437-.161.039-.386-.263-.274z" transform="translate(-519.084 -64.798)"/><path d="m529.194 106.671c2.757-1.345 5.915-1.8 8.574-3.336.389-.225-.2-.324-.414-.2-2.593 1.5-5.725 1.944-8.424 3.26-.416.2-.035.42.264.275z" transform="translate(-512.189 -82.277)"/><path d="m529.375 106.1.845-3.676c.057-.247-.615-.144-.667.084l-.845 3.676c-.057.247.614.144.667-.084z" transform="translate(-512.168 -81.886)"/><path d="m573.14 64.627c-2.319-.418-4.709-.077-7.046-.029-2.8.057-5.631-.159-8.432-.261-5.708-.209-11.439-.53-17.137-.919-5.571-.38-11.154-.825-16.738-.968a45.351 45.351 0 0 0 -6.842.017 14.786 14.786 0 0 0 -4.595.956c-.1.051-.314.194-.134.3a87.205 87.205 0 0 1 7.588 5.328 29.017 29.017 0 0 0 2.759 1.68 8.718 8.718 0 0 0 2.133 1.181c.213.055.784-.266.409-.362a17.676 17.676 0 0 1 -3.591-2 40.129 40.129 0 0 1 -3.83-2.942 28.214 28.214 0 0 0 -3.036-2.083c-.573-.35-1.684-.6-.9-1.134a3.462 3.462 0 0 1 1.033-.166c6.231-1.1 12.783-.179 19.071.145 6.314.325 12.622.791 18.935 1.145 3.331.187 6.666.263 10 .394 3.262.128 6.725-.5 9.944.084.212.038.784-.294.408-.362z" transform="translate(-504.062 -62.321)"/><path d="m532.966 80.516a2.172 2.172 0 0 0 -.64 1.357l-.443 1.924c-.3 1.323-.564 2.667-.983 3.954-.861 2.646-2.475 5.083-2.827 7.9-.032.255.439.111.541.057.575-.306 1.115-.92 1.7-1.17.428-.182.038-.4-.264-.274-.7.3-1.177.887-1.852 1.246l.54.057c.35-2.794 1.968-5.255 2.827-7.9.419-1.288.679-2.629.984-3.954a18.652 18.652 0 0 0 .747-3.352.109.109 0 0 0 -.068-.119l-.153-.062a.552.552 0 0 0 -.533.107l-.113.12c-.266.283.382.272.535.11z" transform="translate(-511.86 -71.051)"/><path d="m510.588 117.883-.066-.122c-.1-.191-.477-.088-.6.035a36.961 36.961 0 0 0 -6.135 8.139c-1.408 2.515-2.874 5.872-2.809 8.809.04 1.787 1.384 3.749 3.366 3.524 1.863-.211 2.952-2.367 2.957-4.062 0-1.655-.978-2.931-2.708-2.533-2.2.506-3.161 3.168-4.063 4.95a45.229 45.229 0 0 0 -3.178 9.62 25.89 25.89 0 0 0 -1.044 5.552c-.037 1.615.656 3.09.618 4.7-.007.274.662.137.668-.084.048-1.976-.749-3.72-.529-5.743a44.046 44.046 0 0 1 1.5-6.613 38.43 38.43 0 0 1 2.435-7.126c.434-.879.906-1.741 1.387-2.595a4.119 4.119 0 0 1 .723-1.188l3.013-.62a2.27 2.27 0 0 1 .4.914 4.1 4.1 0 0 1 -.208 2.467c-.708 1.857-2.748 2.47-4.024.79-1.378-1.816-.29-4.768.351-6.693a31.987 31.987 0 0 1 7.811-12.1l-.6.035.066.122c.122.226.768.007.668-.179z" transform="translate(-496.306 -89.413)"/></g></svg>