<svg height="19.876" viewBox="0 0 34.775 19.876" width="34.775" xmlns="http://www.w3.org/2000/svg"><path d="m712.658 416.568h-2.124l-.872 1.271c7.423-.109 14.813-.7 22.205-1.336 1.863-.161 3.73-.307 5.581-.582 1.487-.221 2.089-.88 2.249.485.109.929-.73 2.956-1.011 3.884a47.211 47.211 0 0 1 -2.5 6.071 19.824 19.824 0 0 1 -2.658 4.437c-1.048 1.259-.952 1.379-2.146.411-2.34-1.9-4.661-3.84-7.162-5.558a52.7 52.7 0 0 0 -6.978-4.579c-1.993-.939-6.04-2.014-7.226-4.113l-1.557.936 1.1-.056c.826-.042 2.369-1.347.872-1.271l-1.1.056c-.27.014-1.9.331-1.557.935 1.916 3.391 7.874 4.477 10.853 6.612 2.191 1.57 4.454 3.058 6.637 4.676a37.932 37.932 0 0 1 3.811 2.972c.551.529.911 1.36 1.608 1.733 2.33 1.248 3.985-1.377 5.126-2.971 3.346-4.675 5.032-10.282 6.683-15.709a.308.308 0 0 0 -.08-.3c-.751-.71-1.248-.613-2.261-.474-2.893.4-5.733.97-8.677 1.221-6.974.595-13.942 1.145-20.944 1.247-.828.012-2.389 1.271-.872 1.271h2.124c.843 0 2.38-1.271.872-1.271z" fill="#fff" transform="translate(-707.731 -414.002)"/></svg>