<svg height="52.743" viewBox="0 0 110.894 52.743" width="110.894" xmlns="http://www.w3.org/2000/svg"><path d="m245.428 746.894c4.151-7.494 11.144-13.586 18-18.571a29.906 29.906 0 0 1 19.676-5.879c12.883.7 30.3 5.951 36 18.99 5.331 12.2-13.1 22.159-22.7 15.387-4.472-3.155-2.916-10.457-1.426-14.759 2.88-8.314 9.8-14.33 16.471-19.651a70.572 70.572 0 0 1 25.29-13.345 29.4 29.4 0 0 1 9.627-1.021c2.028.073 7.715.789 8.7-1.626.233-.569 1.407.664 1.182 1.215-1.131 2.767-6.8 1.981-9.075 1.9a38.216 38.216 0 0 0 -15.765 3.069 71.45 71.45 0 0 0 -18.417 10.8c-5.831 4.62-11.823 9.618-15.307 16.338a25.58 25.58 0 0 0 -2.833 10.018c-.128 1.872.081 1.858 1.118 3.917 1.232 2.446 1.008 2.473 3.482 3.1a15.885 15.885 0 0 0 5.029.5c5.807-.423 13.883-4.614 14.42-11.093.607-7.318-7.339-13.3-13-16.428a51.4 51.4 0 0 0 -22.124-5.824 29.592 29.592 0 0 0 -19.776 6.144c-6.6 4.939-13.353 10.75-17.388 18.033-.317.573-1.464-.7-1.181-1.214z" fill="#1a73e8" transform="translate(-245.383 -706.272)"/></svg>