<svg height="71.648" viewBox="0 0 63.95 71.648" width="63.95" xmlns="http://www.w3.org/2000/svg"><g fill="#ffc845"><path d="m292.491 445.756c1.94-2.017 5.3-2.42 7.967-2.2 2.622.214 5.126.88 7.786.681a19.987 19.987 0 0 0 7.9-2.348c7.19-3.849 9.812-11.992 9.343-19.736-.581-9.608-5.667-17.347-14.654-21.087-9.289-3.865-22.144-.041-26.962 9.124a23.739 23.739 0 0 0 -2.066 14.673c.817 4.857 2.665 9.369.883 14.246-.091.25-.8.042-.718-.192 2.028-5.55-.723-10.685-1.142-16.223a23.2 23.2 0 0 1 2.721-13.411c4.33-7.347 14.355-11.35 22.666-10.019a23.9 23.9 0 0 1 18.552 15.424c2.417 7.212 2.258 16.322-2.355 22.657a18.741 18.741 0 0 1 -12.133 7.089 22.258 22.258 0 0 1 -7.033-.106c-3.252-.494-7.549-.928-10.085 1.709-.173.18-.856-.085-.667-.281z" transform="matrix(.97437006 -.22495105 .22495105 .97437006 -362.2976108266 -311.09500678681)"/><path d="m292.112 445.976c2.753-2.725 5.292-2.761 9.053-2.566 4.93.257 9.395.235 13.693-2.241a19.639 19.639 0 0 0 8.056-8.16 15.975 15.975 0 0 0 2-5.2 31.882 31.882 0 0 0 -.149-7.922 20.924 20.924 0 0 0 -5.924-12.652 26.315 26.315 0 0 0 -11.893-6.589c-9-2.476-21.511 0-24.952 9.9-1.578 4.534-.288 10.006.094 14.637.411 4.987 2.866 9.157.226 13.989-.132.242-.827.006-.718-.193 2.737-5.01-.056-9.479-.265-14.618-.051-1.242-.328-2.266-.435-3.489-.128-1.473-.156-3-.24-4.482a15.142 15.142 0 0 1 .884-6.737c3.276-8.048 13.447-11.385 21.507-10.23 7.548 1.083 15.741 4.975 19.708 11.789 2.38 4.088 3.014 9.029 2.985 13.682a14.616 14.616 0 0 1 -1.3 6.681 25.432 25.432 0 0 1 -3.175 5.3 19.85 19.85 0 0 1 -10.765 6.7 25.459 25.459 0 0 1 -7.03.365c-1.71-.09-3.44-.272-5.154-.2a7.2 7.2 0 0 0 -5.532 2.525c-.178.176-.858-.092-.667-.281z" transform="matrix(.97437006 -.22495105 .22495105 .97437006 -361.67664384882 -311.30815698654)"/><path d="m290.717 447.133a17.014 17.014 0 0 1 9.894-2.043 31.909 31.909 0 0 0 8.774-.688 53.511 53.511 0 0 0 7-1.53c8.778-3.259 8.8-14.07 6.991-21.744-2.18-9.263-9.038-15.69-18.276-17.692-7.926-1.718-17.3-1.325-22.128 6.181-2.888 4.492-3.324 10.291-2.911 15.469.4 5.054 2.38 10.237.966 15.23-.071.25-.788.056-.718-.192 1.533-5.42-.869-11.417-1.078-16.963-.173-4.594.45-9.547 2.9-13.536 4.343-7.078 12.511-8.086 20.075-7.077 7.761 1.035 15.291 4.743 19.225 11.779a30.119 30.119 0 0 1 3.718 14.328c0 3.765-.687 8.261-3.244 11.2-3.16 3.63-7.665 3.985-12.073 4.938a30.761 30.761 0 0 1 -8.158.786c-3.732-.194-7.072-.038-10.378 1.9-.2.119-.863-.176-.572-.347z" transform="matrix(.97437006 -.22495105 .22495105 .97437006 -360.45481326573 -312.70172614072)"/><path d="m349.013 468.282c.009-.005-4.752-4.293-5.243-4.659a25.93 25.93 0 0 0 -3-1.951c-1.156-.638-3.294-2.181-3.827-.324-.231.8-.258.84.24 1.406.2.232-.385.2-.476.155-.75-.374-2.972-1.71-3.015.407q1.454 1.907-1.68 2.424a3.989 3.989 0 0 0 1.292 1.789c.295.287-.357.274-.511.165q-.062.6-.126 1.21a6.8 6.8 0 0 0 1 1.234 18.171 18.171 0 0 0 1.362 1.359c1 .907 2.021 1.8 3.033 2.7.795.7 2.528 2.646 3.523 2.705l.527.347.729-1.964c-.019.04-.3-.358-.235-.264-.161-.219.282-.219.383-.187q1.443.744 2.178-1.406-.474-.613-.992-1.191l.622-.066c2.153 2.682 2.266-2.219 2.074-2.064q-.613-.694.916.056 1.918 0 1.085-1.622c-.406-.263.215-.362.445-.213 1.026.664.981 1.573-.278 2.21-1.161.588-2.13-.35-2.941-1.18-.293-.3.358-.266.511-.165 3.138 2.076-.16 5.886-2.482 2.994-.2-.252.5-.2.622-.067.8.85 2.2 2.232.84 3.242-.679.505-.765.107-1.51.212-.923.129-.559-.306-.546-.34a11.906 11.906 0 0 1 .762.96c.524 1.1.065 1.8-1.18 1.786-1.962-.022-4.3-2.489-5.63-3.664-1.2-1.061-2.441-2.108-3.594-3.218-.685-.659-2.175-1.939-2.285-2.911-.056-.5-.225-.723.23-1.015.121-.078 1.051-.1.941.021-.517.553-2.131-1.768-1.2-2.744 1-1.058 2.6.085 3.344.758.312.281-.4.264-.576.118-1.28-1.08-2.337-3.771.2-3.811.634-.01 1.583.878 2 .824-.458.06-1.228-.922-.819-1.635 1.008-1.755 4.452.149 5.46.707a38.475 38.475 0 0 1 8.572 6.9c.077.079.106.171 0 .233l-.161.094c-.2.117-.864-.179-.572-.348z" transform="matrix(.97437006 -.22495105 .22495105 .97437006 -421.91797680987 -319.78712097582)"/><path d="m332.5 461.446.021-.052c.069-.176.381-.1.5-.051 2.623 1.081 9.5 3.2 9.717 6.8a.119.119 0 0 1 -.073.129c-1.3.717-3.027-.715-4.07-1.385-1.585-1.019-3.757-2.507-4.717-4.139a.115.115 0 0 1 .048-.181c1.256-.589 3.573 1.055 4.556 1.645.737.442 5.031 3.062 4.418 4.33-1.159 2.394-9.733-4.949-10.69-6-.218-.24.161-.287.336-.238a16.833 16.833 0 0 1 4.833 2.737 18.912 18.912 0 0 1 3.917 3.271c.19.245-.381.2-.476.155a45.9 45.9 0 0 1 -4.74-2.914 15.5 15.5 0 0 1 -3.336-2.412c-.226-.258.467-.166.557-.114 2.423 1.4 6.118 3.974 7.14 6.7.059.159-.242.157-.31.154a5.282 5.282 0 0 1 -2.707-1.5 35.388 35.388 0 0 1 -4.911-4.247c-.231-.266.477-.155.557-.114 3 1.534 5.345 4.543 7.484 7.085.226.268-.472.16-.557.114a18.1 18.1 0 0 1 -2.713-1.988c-.6-.484-1.174-.989-1.757-1.488-.208-.178-2.383-1.83-2.391-1.907-.044-.46 2.275 1.528 2.519 1.766a26.509 26.509 0 0 0 3.685 3.4l-.557.114c-1.451-2.26-3.627-3.979-5.1-6.216-.194-.294.46-.169.558-.114 2.5 1.431 4.257 3.964 6.792 5.368l-.582.062c-.029-1.182-2.333-2.847-3.1-3.6a31.32 31.32 0 0 1 -2.417-2.309c-.223-.272.473-.159.558-.114 2.66 1.422 4.627 3.863 7.209 5.407l-.558.114c-1.552-2.346-4.418-3.742-6.273-5.831-.222-.251.462-.174.558-.114a30.25 30.25 0 0 1 2.584 1.948c.487.381.986.747 1.478 1.122.138.105 1.841 1.674 1.553 1.665-.358-.012-1.56-1.463-1.869-1.74a24.043 24.043 0 0 1 -1.955-1.821c-.19-.213.3-.2.382-.187 1.973.426 3.828 2.514 5.348 3.722.318.253-.354.267-.511.165-.536-.348-2.22-1.117-2.094-1.928.024-.149.326-.109.408-.084 1.348.423 3.02 1.494 3.062 3.087a.119.119 0 0 1 -.073.128c-1.051.594-2.914-1.167-2.975-2.133-.01-.159.2-.167.31-.154 1.144.137 2.563 1.258 2.008 2.457-.041.088-.131.1-.22.107-.674.044-1.947-.152-2.218-.921-.29-.824.486-1.262 1.205-.926.424.2.967.768.128 1.03.022-.007-3.315-3.433-3.873-3.852a41.194 41.194 0 0 0 -4.59-3.094l.558-.114c-.348-.437 3.153 2.989 1.9 1.224a4.781 4.781 0 0 0 -1.444-1.24c-.555-.359-3.412-2.194-1.229-.631 1.172.839 1.846 1.394.214.344-.081-.052-1.81-1.18-1.872-.737-.044.311 1.474 1.345 1.529 1.374l-.557.114c-.575-1.108-1.3-.814-.783-.147l-.694-.037-.38-.579.694.037c.1 1.945 2.348 3.63 3.8 4.618.4.272-.217.369-.445.214-1.578-1.073-3.968-2.829-4.075-4.922-.017-.329.59-.08.694.037a1.511 1.511 0 0 1 .43.684c.115.262-.6.085-.694-.037-1.8-2.329 1.322-1.423 2.12.117.162.312-.445.173-.557.114-.682-.363-1.941-1.339-2.01-2.185-.008-.094.057-.129.139-.15 1.473-.382 3.49 1.28 4.3 2.375.138.186-.187.214-.285.206-1.2-.1-2.428-1.533-3.159-2.377-.149-.173.2-.224.286-.206 1.62.313 4.973 2.208 5.643 3.794a.1.1 0 0 1 -.025.1c-1.046 1.026-3.607-1.325-4.212-2.083-.218-.274.469-.163.558-.114.887.492 10.072 6.648 7.867 7.652a.57.57 0 0 1 -.62-.167l-.205-.312a.115.115 0 0 1 .049-.181q1.81-.575.36-1.092l.222.283c.379.758 1.966 1.609 1.051.144q-2.286-1.837-.614-.572l.36.238c.351.838-.692-.17-1.052-.391a23.507 23.507 0 0 1 -2.49-1.873c-.567-.467-.807-.7-.067-.077 1.1.919 2.1 1.944 3.148 2.916.3.278-.355.279-.511.165-2.173-1.58-4.2-3.477-6.481-4.9l.558-.114c1.857 2.091 4.722 3.487 6.273 5.831.192.291-.459.173-.558.114-2.576-1.54-4.552-3.987-7.209-5.407l.557-.114c1.174 1.432 2.764 2.63 4.054 3.977.528.552 1.494 1.22 1.515 2.038.006.271-.456.131-.582.062-2.526-1.4-4.287-3.936-6.793-5.367l.558-.114c1.473 2.235 3.65 3.957 5.1 6.216.186.289-.454.182-.557.114-2.343-1.535-4.276-3.925-6.307-5.843-.308-.29.405-.265.576-.118 2.236 1.93 4.679 4.354 7.279 5.754l-.557.114c-2.038-2.421-4.394-5.422-7.261-6.887l.558-.114a23.27 23.27 0 0 0 3.033 2.672c.5.4.982.828 1.483 1.229.351.28 1.545 1.583 1.3.726-.6-2.09-4.451-4.529-6.14-5.506l.557-.114c1.282 1.467 3.487 2.506 5.125 3.535.249.156 2.051 1.6 1.127.81a36.777 36.777 0 0 0 -3.471-2.727c-.539-.358-2.177-1.71-2.807-1.686a15.831 15.831 0 0 1 1.754 1.416c.951.744 1.908 1.438 2.919 2.1.691.451 2.383 1.894 3.186 1.825 2.2-.19-1.664-2.951-1.976-3.169a19.064 19.064 0 0 0 -3.164-1.806c-.872-.39-1.335-.721-.774.224a10.439 10.439 0 0 0 2.269 1.966c.518.421 2.214 1.944 3.012 1.992 2.827.173-.581-2.329-1.071-2.659-.442-.3-6.395-3.121-6.324-3.3-.1.25-.809.036-.719-.192z" transform="matrix(.97437006 -.22495105 .22495105 .97437006 -417.05985729821 -321.06470444699)"/><path d="m341.293 464.532c2.189-1.442 6.1 5.258 5.86 6.992-.015.114-.235.115-.31.1-1.165-.2-5.171-3.243-3.1-3.793s7.091 3.321 5.662 5.524c-.048.074-.213.071-.285.058-2.478-.414-2.7-4.864-.178-3.449 2.372 1.333-.4 4.019-.781 1.871-.44-2.455 4.114-.139 1.61 1.3-2.526 1.456-6.579-4.293-5.648-6.208.056-.115.2-.11.31-.1 1.764.127 3.305 2.77 2.721 4.333a.173.173 0 0 1 -.14.1c-1.656.24-3.066-1.176-4.166-2.262-1.126-1.112-3.423-3.083-3.162-4.854.023-.154.325-.1.408-.083 1.487.3 3.079 4.132.651 3.678-1.4-.262-4.058-3.325-1.517-3.811 1.378-.263 3.961 2.4 2.354 3.272-1.467.795-5.1-2.026-3.927-3.461.079-.1.281-.063.382-.039 1.289.317 3.481 3.278 1.151 3.275-1.544 0-2.273-2.855-.578-2.53.105.02.541.152.383.34-.959 1.135-2.862-.244-1.628-1.134.156-.113.664-.064.692.186a1.528 1.528 0 0 1 -.442 1.213c-.149.194-.693 0-.693-.237 0-1.956 2.582-1.893 3.477-.5 1.231 1.916-1.469 1.533-2.433.874-.928-.634-1.784-2.91.05-2.563 1.876.354.808 1.965-.678 1.83-.105-.01-.625-.276-.335-.372 1.937-.644 3.41 2.278 3.72 3.732.05.235-.405.145-.5.1-.786-.344-3.506-3.052-2.018-3.665.464-.192 1.071.5 1.328.743a21.714 21.714 0 0 1 3.822 5.143c.16.306-.444.183-.557.114a14.719 14.719 0 0 1 -4.259-4.046c-.117-.184.169-.226.285-.206 1.407.239 2.575 1.52 3.541 2.474 1.083 1.069 3.266 2.877 3.473 4.428.031.232-.392.158-.5.1a13.692 13.692 0 0 1 -3.432-2.917c-.633-.649-1.792-1.4-2.041-2.306-.055-.2.327-.155.408-.135 2.847.717 5.967 3.816 7.033 6.509a.1.1 0 0 1 -.026.1c-1.5 1.132-5.854-3.818-6.043-4.888-.035-.2.31-.165.407-.135 2.451.773 4.974 3.244 6.616 5.127.087.1-.03.179-.115.2-1.508.424-4.313-3.339-4.828-4.338-.1-.188.15-.227.285-.206 1.713.255 5.25 3.128 4.943 5.035-.015.092-.153.1-.219.108-1.894.178-4.38-2.782-4.773-4.38-.04-.161.223-.161.31-.154 1.941.169 5.7 3.426 5.289 5.477-.019.092-.15.1-.22.108-1.853.194-4.55-2.066-5.144-3.75-.083-.235.428-.129.5-.1 1.262.445 2.97 1.844 3.169 3.223.039.269-.476.125-.582.062a1.82 1.82 0 0 1 -.89-1.589c-.006-.126.117-.152.22-.159.808-.054 1.716.628 1.439 1.5-.037.119-.217.109-.31.1a1.973 1.973 0 0 1 -1.906-1.577.117.117 0 0 1 .074-.129c1.08-.442 3.742.709 3.684 1.938a.123.123 0 0 1 -.073.078 2.316 2.316 0 0 1 -2.514-.62c-.046-.049-.117-.135-.046-.2l.163-.147a.485.485 0 0 1 .476-.007c2.352 1.056-2.18 2.772-1.663.085.022-.117.229-.112.31-.1l.291.034a.488.488 0 0 1 .408.244c.1.289.1.24-.071.484-.051.072-.211.072-.285.058a1.475 1.475 0 0 1 -1.329-1.168c-.049-.2.321-.161.407-.135a1.5 1.5 0 0 1 1.087 1.3c.051.235-.405.146-.5.1a5.782 5.782 0 0 1 -2.034-2.416l.694.037c.208.515.8 1.189.568 1.773-.078.2-.459.1-.582.01a3.706 3.706 0 0 1 -1.362-1.907.116.116 0 0 1 .074-.128 2.375 2.375 0 0 1 2.97 1.858.116.116 0 0 1 -.074.128c-1.1.386-2.3-.524-2.857-1.417-.09-.142.076-.208.194-.211 1.315-.035 3.9 2.707 3.04 3.779-.1.119-.367.056-.476.007a3.649 3.649 0 0 1 -1.937-2.621c-.008-.3.529-.108.647-.013a6.068 6.068 0 0 1 2.242 3.787c.017.233-.381.158-.5.1-1.138-.528-2.653-2.545-2.566-3.82.012-.188.428-.08.5-.051 1.041.4 2.5 1.866 1.948 3.092-.094.206-.442.083-.582.01a6.338 6.338 0 0 1 -2.839-3.311c-.056-.2.328-.159.407-.135a4.275 4.275 0 0 1 2.464 3.041c.035.2-.31.162-.408.135-1.785-.509-3.225-2.424-4.32-3.843-.172-.222.291-.207.382-.187 1.652.362 3.546 2.912 4.5 4.179.19.253-.383.2-.476.155-2.373-1.02-4.282-3.427-5.961-5.338-.229-.26.512-.152.622-.066 1.388 1.077 3.31 2.463 4.122 4.055.117.229-.249.231-.382.188-1.649-.533-2.951-2.393-4.136-3.58-.466-.468-3.65-2.877-3.207-3.669a.289.289 0 0 1 .31-.1c1.4.234 2.714 1.356 3.839 2.137a19.73 19.73 0 0 1 4.375 4.134c.191.248-.383.2-.476.155a14.1 14.1 0 0 1 -3.343-2.855 55.8 55.8 0 0 1 -4.227-4.047c-.2-.237.385-.2.476-.155 2.821 1.376 5.205 4.013 7.7 5.9l-.622.067a31.192 31.192 0 0 0 -3.77-4.233q-.8-.79-1.611-1.562c-.065-.062-1.805-1.4-.752-1.264.8.1 2.778 2.777 3.426 3.389 1.024.969 2.078 1.932 3.185 2.8l-.622.067a29.269 29.269 0 0 0 -3.608-4.013c-.374-.36-3.084-2.467-3.077-2.838.009-.467 1.3.725 1.416.838.55.552 1.094 1.11 1.649 1.658a16.628 16.628 0 0 0 3.562 3.064l-.557.114c-1.094-1.881-3.974-4.829-6.07-5.713l.5-.1c.091 1.266 1.637 2.73 2.352 3.654 1.088 1.405 2.218 2.752 3.351 4.12.2.245-.494.205-.622.067-1.019-1.1-1.971-2.252-3.047-3.3-.52-.505-1.055-.995-1.609-1.462-.3-.252-1.581-1.407-1.4-1.13a30.266 30.266 0 0 0 3.125 3.5 37.326 37.326 0 0 0 3.2 3.361l-.622.066a36.27 36.27 0 0 0 -3.751-3.885 16.649 16.649 0 0 1 -2.044-1.719c-.531-.688 1.258 1.164 1.427 1.355.667.752 1.366 1.472 2.059 2.2a30.8 30.8 0 0 0 3.356 3.347l-.622.066c-1.567-2.062-3.871-4.741-6.179-6.033l.557-.114c2.063 2.316 4.584 4.14 6.826 6.264l-.623.067c-.688-.772-1.422-1.5-2.1-2.277-.213-.246.5-.185.623-.067 1.082 1.015 3.217 2.075 3.741 3.461.021.056-.031.107-.073.129-1.269.663-2.767-1.275-3.518-1.966-1.319-1.213-2.707-2.346-4.067-3.513a12.43 12.43 0 0 1 -2.7-2.5c-.174-.3.45-.179.557-.114a21.011 21.011 0 0 1 3.942 3.034c.061.061.122.192 0 .233-1.555.508-4.387-2.45-4.769-3.671a.1.1 0 0 1 .026-.1c1.126-1.191 3.474 1.448 3.77 2.4.083.267-.5.106-.581.062-1.263-.705-2.491-2.51-3.433-3.615-.217-.255.5-.172.622-.067a8.386 8.386 0 0 1 1.537 1.68c.187.288-.506.191-.622.067a1.351 1.351 0 0 1 -.455-1.137c.005-.119.244-.108.31-.1 3.091.236 6.406 4.353 7.622 6.879.149.309-.437.187-.557.114-1.956-1.187-3.393-3.72-4.807-5.484-.2-.249.5-.206.622-.067.914 1.006 1.625 2.16 2.476 3.219l-.669.015c-.785-1.1-3.022-3.246-2.956-4.579.01-.188.431-.078.5-.051 2.121.817 3.575 3.217 5 4.868l-.669.015a31.743 31.743 0 0 0 -2.454-3.037c-.305-.279.4-.278.576-.118a33.037 33.037 0 0 1 2.547 3.141c.2.236-.517.19-.669.015-.382-.442-3.641-4.49-3.97-4.164-.04.04 2.542 3.589 2.762 3.9.194.273-.532.186-.669.015-.817-1.017-1.507-2.151-2.383-3.116l.622-.066c1.308 1.631 2.781 4.191 4.584 5.286l-.557.113a15.021 15.021 0 0 0 -1.869-2.748 12.939 12.939 0 0 0 -2.669-2.553l-.7-.429q-.654-.836-1-.042l-.622.067a17.9 17.9 0 0 0 -1.444-1.577l.622-.067c.891 1.046 2.01 2.748 3.209 3.417l-.582.062a4.765 4.765 0 0 0 -.646-.9l-.8.076c.029.291 1.175 1.031 1.441 1.228.517.381 1.1.806.235.124a29.056 29.056 0 0 0 -2.927-2.125l.557-.114a11.636 11.636 0 0 0 2.607 2.394c1.16.992 2.339 1.964 3.478 2.98.465.415.912.93 1.408 1.3.226.169 1.417 1.192.8.353a23.953 23.953 0 0 0 -2.923-2.509l.622-.067c.672.774 1.416 1.51 2.1 2.277.213.238-.494.189-.622.067-2.275-2.157-4.824-4.015-6.918-6.367-.228-.257.47-.163.558-.114 2.415 1.351 4.738 4.04 6.4 6.231.221.29-.52.145-.622.067a34.372 34.372 0 0 1 -6.927-7.423c-.128-.188.179-.216.286-.206.832.076 1.666 1.055 2.247 1.557a38.205 38.205 0 0 1 4.589 4.645c.221.268-.51.16-.622.067a40.175 40.175 0 0 1 -3.763-3.97 21.493 21.493 0 0 1 -3.1-3.743c-.147-.267.358-.21.476-.155 2.918 1.353 5.128 4.359 7.266 6.661l-.623.067c-1.287-1.556-2.568-3.1-3.8-4.7-.681-.885-1.867-2.011-1.95-3.18-.017-.236.381-.153.5-.1a16.633 16.633 0 0 1 6.456 5.993c.178.307-.455.168-.557.114-2.629-1.371-4.754-4.268-6.849-6.308-.31-.3.41-.251.576-.117a39.132 39.132 0 0 1 7.445 7.489c.213.3-.519.147-.622.066-2.562-2.015-4.72-4.455-7.112-6.653-.316-.29.408-.249.576-.117a36.3 36.3 0 0 1 7.3 7.5c.212.306-.522.142-.622.066-1.511-1.142-2.984-2.333-4.457-3.523-.329-.265-1.415-.912-1.526-1.4.076.33 1.683 1.553 1.944 1.8.994.946 2.865 2.09 3.469 3.3.351.7-1.41-1.249-1.6-1.432a19.875 19.875 0 0 0 -2.553-2.018c-.44-.3-1.565-1.342-2.027-1.295-.762.078.018.364.323.715 1.04 1.194 2.294 2.252 3.421 3.367.322.317 2.42 2.391 1.323 1.358s-2.183-2.11-3.368-3.029l.623-.067c.759.864 1.633 1.755 2.435 2.578.383.394 1.835 1.352 1.892 1.769-.034-.246-.9-.961-1.014-1.081-.169-.176-1.779-1.742-1.16-1.23.657.544 1.2 1.214 1.84 1.776.454.4 1.25 1.349.464-.092-.122-.223-1.407-1.864-.743-1.083.772.91 1.168 1.871 2.314 2.469l-.582.01c.37-.814-.844-2.023-.437-1.255a4.714 4.714 0 0 0 1.558 1.932l-.5.1a5.933 5.933 0 0 0 -2.1-3.579l.647-.014c.01.388.825 1.8.917 1.531.083-.241-.653-1.16-.794-1.357-1.3-1.815-.361-.244.032.035l-.582.01c.18-.453-.385-1.218-.567-1.67-.1-.25.6-.118.694.037.363.6.963 1.825 1.649 2.136l-.5.1-.254-.64q3.836.388 1.964-.4c-.749-.681-.849.417-.019.919l-.582.062a4.545 4.545 0 0 0 -2.727-2.828l.5-.1a5.266 5.266 0 0 0 2.655 2.662c1.516.5.766-.856.142-1.664-.319-.414-2.808-2.8-2.729-2.091a5.32 5.32 0 0 0 2.4 2.753c.669.25.78.348.483-.461a5.366 5.366 0 0 0 -1.161-1.443c-.156-.162-1.761-1.739-1.93-1.592-.1.09-.031-.064.242.351a13.436 13.436 0 0 0 1.639 1.812c.528.547 1.333 1.283-.038.21-.915-.715-1.719-1.574-2.635-2.29-1.708-1.335-1.232-.571-.253.48.308.331 2.92 3.138 2.889 1.944-.029-1.1-5.155-4.95-5.207-4.85-.232.453 4.064 4.059 4.622 4.339l-.5.1c-.1-.711-.939-1.474-1.368-1.99a26.348 26.348 0 0 0 -2.818-3.033c-.765-.671-2.217-1.868-.529-.32a20.327 20.327 0 0 0 2.837 2.571l-.557.114a26.932 26.932 0 0 0 -2.407-3.323c-.213-.285-1.245-2.044-1.63-1.446-.345.535 1.99 2.294 1.858 2.237l-.5.1a6.521 6.521 0 0 0 -.6-1.36c-.635-1.3-1.759-5.22-1.762-1.357l-.693-.237.392-1.022.692.186.294.571.383.34q1.664 1.463-.45-.662c-.049.153-.1.306-.149.459q.736 1.9 3.205 1.382-.2-1.273-1.392-.6c-2.594.411.992 2.223 1.214.825.187-1.18-1.244-1.986-.042-.088.542.856 4.242 5.686 5.461 3.891.592-.871-2.7-4.141-1.358-.976a7.794 7.794 0 0 0 1.351 2.308q4.78.593 2.708.246-.617-.275-.247.316.537-1.442-.631-.8-1.41 0-.174 1.272c1.231.58.189-1.411.01-1.7a6.389 6.389 0 0 0 -2.892-2.119q-.268.62-.537 1.24a1.928 1.928 0 0 0 1.6.716l-.476-1.072c-.421-.846-2.921-5.349-4.046-4.607-.195.128-.858-.159-.572-.347z" transform="matrix(.97437006 -.22495105 .22495105 .97437006 -425.12539378032 -320.01032998341)"/><path d="m357.044 468.055c-.345.355-.2.939-.069 1.362a3.979 3.979 0 0 0 .551 1.3l-.647-.037a3.125 3.125 0 0 0 -.285-1.61 3.719 3.719 0 0 0 -1.107-1.694q-.336-.412-.064.4c.054.188.113.376.18.56a5.664 5.664 0 0 0 .443.924 4.48 4.48 0 0 0 .435.622c-.015.251-.018.227-.01-.075a.852.852 0 0 0 -.037-.2 4.554 4.554 0 0 0 -.921-1.685 5.944 5.944 0 0 0 -.739-.7 1.589 1.589 0 0 1 -.338-.3c.147.01.228.073.241.19.21.376.34.763.589 1.124a5.851 5.851 0 0 0 1.072 1.24l-.382.039c.327-.29-.239-1.033-.408-1.26-.094-.126-.647-.928-.767-.923-.349.013.262.972.346 1.085a9.8 9.8 0 0 0 .922 1.156l-.647.014a6.8 6.8 0 0 0 -.624-1.088c-.07-.122-.327-.247-.073-.242.215 0 .228.265.328.439a4.171 4.171 0 0 0 .742.96c.176.155.156.251.123.014a1.727 1.727 0 0 0 -.315-.609c-.1-.142-.682-.971-.8-.945-.389.083.835 1.884 1.085 2.107l-.647.014a2.219 2.219 0 0 0 -.628-1.33l.574.115c-.3.151.363 1.675.44 1.927.095.308-.609.058-.694-.037a5.206 5.206 0 0 1 -.615-1.015l.694.088c.023.123.047.246.07.369.093.228-.622.147-.719-.09a.66.66 0 0 1 -.07-.472c.012-.249.624-.039.694.089a5.159 5.159 0 0 0 .615 1.014l-.694-.037c-.133-.435-.89-1.885-.294-2.185a.6.6 0 0 1 .574.115 2.454 2.454 0 0 1 .771 1.538c.013.3-.535.115-.648.014-.431-.384-1.783-2.048-1.172-2.616.672-.626 1.675.716 1.986 1.121s.99 1.783-.131 1.5a3.435 3.435 0 0 1 -1.868-2.356.119.119 0 0 1 .074-.129c.9-.427 1.724 1.189 1.943 1.816.1.274-.564.095-.647.014a6.192 6.192 0 0 1 -1.468-2.03c-.208-.585.056-.959.681-.821.729.161 2.688 2.287 1.937 2.955a.428.428 0 0 1 -.381.039c-.594-.2-3.205-3.282-1.878-3.316.344-.008.526.2.765.409a6.432 6.432 0 0 1 1.214 1.205c.249.355 1.32 1.875.719 2.339-1.01.78-3.173-3.133-2.189-3.66.673-.361 1.459.7 1.761 1.113a4.164 4.164 0 0 1 .962 2.95c-.055.232-.545.064-.647-.037a3.855 3.855 0 0 1 -.716-1.585 1.5 1.5 0 0 1 .142-1.478c.174-.179.856.086.667.281z" transform="matrix(.97437006 -.22495105 .22495105 .97437006 -443.99870313451 -317.10119834187)"/><path d="m354.855 480.182c-2.445 1.919-5.273 3.92-8.094 1.385-1.278-1.149-.971-3.068-.687-4.591.223-1.191.619-3.876 1.782-4.54a.562.562 0 0 1 .621.167l.049.1c.146.311-.569.229-.669.015l-.049-.1.62.167c-.562.321-.843 1.576-1.042 2.137a13.949 13.949 0 0 0 -.756 3.257 6.5 6.5 0 0 0 .019 2.007 1.906 1.906 0 0 0 .688 1.264l3.5.738c1.242-.308 2.369-1.513 3.354-2.287.2-.156.864.127.667.281z" transform="matrix(.97437006 -.22495105 .22495105 .97437006 -436.72343534382 -320.94735419023)"/><path d="m323.817 384.873.071-.024c.19-.063.576-.013.645.219a10.941 10.941 0 0 1 .346 2.382c.023.33.143.761-.147 1a.536.536 0 0 1 -.622-.082 4.672 4.672 0 0 1 -.78-2.317c-.119-.631-.533-1.857-.2-2.467.117-.213.592-.095.694.088a7.813 7.813 0 0 1 .639 2.329 24.632 24.632 0 0 1 .612 2.769c.024.311-.6.105-.694-.037a5.212 5.212 0 0 1 -.441-1.567c-.221-.875-.3-1.774-.5-2.651-.063-.271.649-.142.719.09a25.849 25.849 0 0 1 .644 2.667c.056.305-.633.1-.719-.09a5.462 5.462 0 0 1 -.383-1.937 1.905 1.905 0 0 1 .062-1.138c.093-.158.456-.019.556.034.891.475 1.084 2.591.64 3.4-.133.242-.828.007-.719-.192.306-.561.329-2.628-.367-3l.556.034c-.184.311-.008 1.065.024 1.409a4.582 4.582 0 0 0 .349 1.474l-.719-.09a25.59 25.59 0 0 0 -.644-2.667l.719.09c.181.778.247 1.576.427 2.355a6 6 0 0 0 .465 1.758l-.694-.037a18.442 18.442 0 0 0 -.549-2.457 9.214 9.214 0 0 0 -.653-2.537l.694.088c-.26.473.037 1.466.129 1.978a5.4 5.4 0 0 0 .706 2.5l-.622-.081c.269-.221.084-1.074.063-1.378a8.367 8.367 0 0 0 -.313-1.814l.645.219-.071.024c-.218.073-.866-.249-.572-.347z" transform="matrix(.97437006 -.22495105 .22495105 .97437006 -386.34917306802 -299.81754192153)"/><path d="m323.573 383.227c.723-.037 1.077.667 1.249 1.275a10.409 10.409 0 0 1 .294 2.2 2.786 2.786 0 0 1 -.111 1.353c-.113.2-.428.093-.582.01-.946-.5-2.741-5.284-1.021-4.927.705.147.973 1.057 1.165 1.646.3.921.771 2.333.433 3.276-.071.2-.465.1-.582.01-.7-.509-.793-1.96-.937-2.756-.091-.507-.4-1.68.4-1.748 1.533-.13 1.478 3.542 1.56 4.3.031.285-.692.153-.718-.09a13.391 13.391 0 0 0 -.6-3.564c-.224-.559-.033.344-.019.534a7.4 7.4 0 0 0 .165.982c.081.383.176.76.272 1.139.06.237.113.837.321.988l-.582.011c.37-1.035-.224-2.827-.679-3.821-.029-.063-.111-.32-.185-.36-.1-.055-.007.045-.029.2a3.289 3.289 0 0 0 .115 1.168c.192.823.561 2.369 1.364 2.8l-.582.01a4.013 4.013 0 0 0 .01-2.174 10.536 10.536 0 0 0 -.154-1.142c-.021-.087-.323-.914-.288-.915-.274.014-.764-.383-.28-.408z" transform="matrix(.97437006 -.22495105 .22495105 .97437006 -386.36977268977 -299.68449811153)"/><path d="m287.246 396.043.035.163-.693-.185a30.32 30.32 0 0 0 2.342-3.639c.3-.46.789-1.58 1.474-1.511.09.009.478.124.408.3-.842 2.056-2.414 3.869-3.058 6l-.693-.237c.508-.849.88-1.774 1.395-2.621.539-.885 1.176-1.7 1.7-2.6l.667.281c-.61.955-1.009 1.994-1.52 3-.445.876-.937 1.71-1.3 2.627l-.693-.237c.956-1.506 2.047-2.878 3.064-4.336.137-.2.826.033.667.281-.826 1.288-1.881 2.387-2.658 3.72-.109.188-.784-.021-.693-.237.4-.929.758-1.861 1.183-2.779.136-.293.854-1.482.59-1.785l.62.166a6.267 6.267 0 0 0 -2.485 3.757l-.718-.192c.51-1.366 1.18-2.671 1.689-4.021l.693.237a28.636 28.636 0 0 0 -2.24 4.414c-.1.249-.811.034-.719-.192a29.1 29.1 0 0 1 2.291-4.5c.114-.181.778.013.693.237-.509 1.35-1.179 2.655-1.689 4.021-.092.247-.747.067-.718-.192a6.466 6.466 0 0 1 2.632-3.912c.181-.115.5.026.621.166.332.383-.2 1.246-.364 1.614-.469 1.049-.911 2.1-1.36 3.158l-.693-.237c.777-1.333 1.833-2.433 2.658-3.721l.667.281c-1.017 1.457-2.108 2.83-3.064 4.336-.115.181-.78-.015-.693-.237.417-1.056 1.01-2.014 1.5-3.035a24.63 24.63 0 0 1 1.371-2.68c.128-.2.817.024.667.281-.523.9-1.161 1.713-1.7 2.6-.514.849-.887 1.771-1.395 2.621-.11.185-.763-.006-.693-.237.644-2.123 2.219-3.945 3.059-6l.408.3c-.069-.007-1.088 1.674-1.245 1.93a22.168 22.168 0 0 1 -2 3.1c-.144.165-.648.025-.693-.185l-.035-.163c-.057-.268.666-.155.719.09z" transform="matrix(.97437006 -.22495105 .22495105 .97437006 -330.76618918629 -315.37472207173)"/><path d="m273.427 417.563c-.7.136-1.383.346-2.081.489a12.468 12.468 0 0 0 -2.281.308c-.152.067-.494-.1-.251.346.172.313 1.882-.111 2.235-.224a5.806 5.806 0 0 0 2.023-.893l.553.336c-.741.155-1.461.351-2.191.549a10.007 10.007 0 0 0 -2.1.449l-.144-.321c1.172.448 3.172-.555 4.221-1.055l.506.369c-.813.188-1.622.4-2.444.547-.363.067-.73.133-1.094.191.023 0-.808.079-.481.137.728.129 1.616-.343 2.355-.394.122-.008.647.143.473.344a1.825 1.825 0 0 1 -.955.464 23.35 23.35 0 0 1 -2.569.646l-.078-.342a2.492 2.492 0 0 0 .653-.058 14.545 14.545 0 0 0 1.781-.3 14.484 14.484 0 0 1 2.2-.4c.126-.008.728.217.426.378a9.276 9.276 0 0 1 -2.472.676c-.528.11-1.054.2-1.587.279a3.012 3.012 0 0 0 -1.019.192c-.2.151-.864-.136-.667-.281a4.053 4.053 0 0 1 1.707-.365 11.911 11.911 0 0 0 3.466-.849l.426.378c-1.2.076-2.35.511-3.54.658a3.255 3.255 0 0 1 -1.654-.009c-.144-.062-.355-.293-.078-.342a18.519 18.519 0 0 0 1.885-.452c.424-.122 1.11-.2 1.412-.549l.474.344c-.762.053-2.734.93-3.379.175-.284-.332-.088-.511.269-.644a10.287 10.287 0 0 1 1.611-.263c.821-.151 1.631-.359 2.444-.547.157-.036.821.219.506.369-1.435.683-3.489 1.61-5.077 1-.113-.043-.336-.218-.144-.321a6.863 6.863 0 0 1 1.864-.4c.86-.186 1.7-.462 2.561-.643.111-.023.774.137.553.336a7.161 7.161 0 0 1 -3.481 1.308 2.952 2.952 0 0 1 -2.642-.795c-.029-.034-.042-.116 0-.148a4.049 4.049 0 0 1 1.94-.369c1.169-.142 2.277-.471 3.428-.694.229-.045.845.312.44.39z" transform="matrix(.97437006 -.22495105 .22495105 .97437006 -304.83468996071 -331.04979102078)"/><path d="m268.672 443.2a3.85 3.85 0 0 1 1 .079c.069.012.581.188.383.339a4.4 4.4 0 0 1 -1.821.694c-1.335.308-2.682.592-3.987 1.01a5.789 5.789 0 0 0 -.681.233q-.282.282.124.214c.333.245 1.559.024 2 0a16.113 16.113 0 0 0 4.167-.456l.335.373a20.01 20.01 0 0 0 -3.157.154 9.086 9.086 0 0 0 -2.819.416l-.144-.321c.768.319 2.222-.451 2.966-.685a13.514 13.514 0 0 0 2.571-.933l.506.369c-1.926.415-3.919.52-5.872.752l-.36-.4c2.008-.069 3.738-.949 5.666-1.291.133-.024.735.095.553.335a3.969 3.969 0 0 1 -2.192 1 21.384 21.384 0 0 0 -4.437 1.237c-.205.112-.866-.188-.572-.347a13.185 13.185 0 0 1 3.117-.915c1-.247 2.751-.374 3.418-1.254l.553.335c-1.975.351-3.773 1.238-5.827 1.309-.188.006-.76-.351-.36-.4 1.944-.231 3.96-.34 5.871-.752.153-.033.819.192.506.369a18.455 18.455 0 0 1 -3.642 1.26 4.008 4.008 0 0 1 -2.75.305c-.1-.04-.35-.228-.144-.322a7.98 7.98 0 0 1 2.532-.427 25.352 25.352 0 0 1 3.918-.194c.11.008.622.276.335.373a18.5 18.5 0 0 1 -4.923.538c-.891.039-2.29.2-3.014-.459-.046-.042-.119-.144-.046-.2a6.851 6.851 0 0 1 2.478-.931c1.321-.351 3.355-.431 4.465-1.278l.383.34-.815-.07c-.271 0-.763-.4-.28-.407z" transform="matrix(.97437006 -.22495105 .22495105 .97437006 -300.04416371852 -341.74658295918)"/><path d="m345.57 390.964a8.647 8.647 0 0 1 1.693 2.85 7.076 7.076 0 0 1 1.03 2.886c0 .088-.165.1-.219.107-.99.051-1.631-1.144-2.116-1.833-.762-1.084-1.909-2.98-1.8-4.357.012-.148.336-.108.408-.083.906.307 1.42 1.7 1.821 2.462.387.737 1.59 2.471 1.38 3.36-.043.181-.4.094-.5.051a4.168 4.168 0 0 1 -1.8-2.3c-.34-.761-1.262-2.374-.945-3.216.076-.2.462-.1.583-.01a6.213 6.213 0 0 1 1.653 2.27 17.613 17.613 0 0 0 1.641 3.189l-.669.015a9.777 9.777 0 0 1 -1.2-2.546 8.237 8.237 0 0 1 -.655-2.814c.014-.263.617-.019.694.089a15.49 15.49 0 0 1 1.281 2.548 11.464 11.464 0 0 1 .992 2.16c.061.288-.556.1-.647.014-1.069-1.067-1.507-2.985-1.965-4.368-.083-.251.633-.14.719.09.281.753.613 1.5.878 2.251.117.333.231.655-.146.805-.849.339-1.94-1.549-2.284-2.012-.2-.269.5-.192.622-.066a6.934 6.934 0 0 1 1.921 3.447c.018.273-.462.126-.582.062-.8-.429-1.094-1.324-1.685-1.973-.282-.311.414-.3.576-.118.508.558.888 1.52 1.555 1.878l-.582.062a6.673 6.673 0 0 0 -1.779-3.239l.623-.067c.254.342.526.669.792 1 .281.349.5.8.251.133-.284-.752-.6-1.5-.878-2.251l.719.09a21.455 21.455 0 0 0 .713 2.073 7.513 7.513 0 0 0 1.109 2.087l-.647.013a13.881 13.881 0 0 0 -1.117-2.423 14.027 14.027 0 0 0 -1.108-2.18l.694.089a8.486 8.486 0 0 0 .656 2.711 9.36 9.36 0 0 0 1.151 2.441c.2.29-.537.164-.669.015-1.29-1.451-1.39-4.078-3.072-5.261l.582-.01c-.213.565.346 1.669.555 2.194.346.869.809 2.423 1.752 2.836l-.5.052c.178-.755-.827-2.166-1.133-2.769-.26-.513-.54-1.01-.833-1.505-.117-.2-.417-.931-.611-1l.407-.083a6.455 6.455 0 0 0 .969 2.871 6.942 6.942 0 0 0 1.676 2.445q.324.424-.031-.217a5.958 5.958 0 0 0 -.258-.7c-.219-.53-.476-1.05-.728-1.565a8.049 8.049 0 0 0 -1.509-2.561c-.315-.264.4-.268.576-.118z" transform="matrix(.97437006 -.22495105 .22495105 .97437006 -423.17468372298 -293.90814717154)"/><path d="m311.813 453.2a15.448 15.448 0 0 1 7.668-6.721c3.248-1.3 6.583-2.527 9.263-4.884 1.208-1.061 3.03-3.016 3.1-4.727q.609-1.555-1.5-1.989-1.344-2.179-2.702-.379a5.777 5.777 0 0 0 -1.5 2.178c-.486 2.314 1.366-.078 1.811-.63a6.039 6.039 0 0 0 1.282-2.347c.437-1.811-.322-4.95-3.41-2.976a6.365 6.365 0 0 0 -1.4 1.767c-.352.523-1.392 1.786-1.3 2.461.1.767.381.172.776-.26a3.861 3.861 0 0 0 .619-3.461 5.635 5.635 0 0 0 -.765-1.838q-.845-1.747-2.189-.7c-3.986 1.6-2.285 6.554-2.8 9.749-.481 2.956-2.743 5.619-4.53 7.887q-2.743 3.484-5.538 6.929c-.149.185-.83-.034-.667-.281l.088-.133c.131-.2.829.035.667.281l-.087.133-.667-.281c2.9-3.59 6.077-7.122 8.483-11.078a10.653 10.653 0 0 0 1.533-3.65 30.878 30.878 0 0 0 -.049-3.533c.078-2.187.447-5.03 2.433-6.427s3.946.412 4.622 2.365a4.511 4.511 0 0 1 -.832 4.789c-.435.4-1.032.9-1.639.477-1.759-1.237 2.932-6.425 4.7-6.42 3.122.008 3.187 4.025 1.964 5.983-.383.612-3.871 4.62-3.961 1.671-.081-2.664 3.83-5.176 6.153-3.8 4.036 2.4-1.28 8.122-3.545 9.646a41.693 41.693 0 0 1 -7.842 3.823 15.306 15.306 0 0 0 -7.572 6.655c-.118.2-.818-.023-.667-.281z" transform="matrix(.97437006 -.22495105 .22495105 .97437006 -388.07901485069 -315.74770103909)"/></g></svg>