<svg width="430" height="430" viewBox="0 0 430 430" fill="none" xmlns="http://www.w3.org/2000/svg">
<path fill-rule="evenodd" clip-rule="evenodd" d="M188.841 150.391C187.614 149.368 186.03 148.877 184.439 149.026C182.849 149.176 181.384 149.953 180.368 151.186L110.368 236.186C108.609 238.322 108.539 241.385 110.2 243.599C111.86 245.814 114.82 246.605 117.364 245.515L183.984 216.963L241.159 264.609C242.386 265.632 243.97 266.123 245.561 265.974C247.151 265.825 248.616 265.047 249.632 263.814L319.632 178.814C321.391 176.678 321.461 173.615 319.8 171.401C318.14 169.186 315.18 168.395 312.636 169.485L246.016 198.037L188.841 150.391Z" fill="url(#paint0_linear_4440_37)"/>
<path fill-rule="evenodd" clip-rule="evenodd" d="M215 46C113.148 46 29 117.272 29 207C29 256.147 54.3958 299.916 94 329.298L94 400C94 402.181 95.1837 404.19 97.0914 405.248C98.9991 406.305 101.33 406.244 103.18 405.088L170.08 363.275C184.473 366.363 199.52 368 215 368C316.852 368 401 296.728 401 207C401 117.272 316.852 46 215 46ZM41 207C41 125.52 118.029 58 215 58C311.971 58 389 125.52 389 207C389 288.48 311.971 356 215 356C199.541 356 184.562 354.273 170.308 351.037C168.763 350.686 167.143 350.96 165.799 351.8L106 389.175L106 326.247C106 324.311 105.066 322.495 103.493 321.368C65.0992 293.882 41 252.724 41 207Z" fill="url(#paint1_linear_4440_37)"/>
<defs>
<linearGradient id="paint0_linear_4440_37" x1="150.69" y1="125.948" x2="341.963" y2="348.574" gradientUnits="userSpaceOnUse">
<stop stop-color="#CB5EEE"/>
<stop offset="1" stop-color="#4BE1EC"/>
</linearGradient>
<linearGradient id="paint1_linear_4440_37" x1="150.69" y1="125.948" x2="341.963" y2="348.574" gradientUnits="userSpaceOnUse">
<stop stop-color="#CB5EEE"/>
<stop offset="1" stop-color="#4BE1EC"/>
</linearGradient>
</defs>
</svg>
