<svg width="315" height="58" viewBox="0 0 315 58" fill="none" xmlns="http://www.w3.org/2000/svg">
<path d="M7.12402 1.10938C7.72624 1.02799 8.56445 0.987305 9.63867 0.987305C12.4382 0.987305 14.8958 1.45117 17.0117 2.37891C21.7318 4.42969 24.0918 8.53125 24.0918 14.6836C24.0918 15.9857 24.0348 17.2552 23.9209 18.4922C23.1885 26.3698 20.2018 32.0501 14.9609 35.5332C11.4779 37.8444 7.39258 39 2.70508 39C2.33073 39 1.99707 38.9023 1.7041 38.707C1.05306 38.2839 0.727539 37.5921 0.727539 36.6318C0.727539 36.3063 2.20866 25.1003 5.1709 3.01367C5.18717 2.75326 5.24414 2.50911 5.3418 2.28125C5.68359 1.53255 6.27767 1.14193 7.12402 1.10938ZM20.2588 14.8545C20.2588 12.3643 19.7542 10.2972 18.7451 8.65332C17.1663 6.08171 14.5622 4.7959 10.9326 4.7959C10.2816 4.7959 9.56543 4.85286 8.78418 4.9668L5 34.8008C5.24414 34.7845 5.50456 34.7682 5.78125 34.752C8.79232 34.459 11.4616 33.3766 13.7891 31.5049C18.1022 28.0381 20.2588 22.488 20.2588 14.8545ZM41.9629 33.0674C41.9629 33.0837 41.971 33.0999 41.9873 33.1162C42.5081 34.6299 43.1999 35.3867 44.0625 35.3867C44.5671 35.3542 45.3809 34.9961 46.5039 34.3125C47.513 33.6452 48.2699 33.3115 48.7744 33.3115C49.0186 33.3115 49.2627 33.3929 49.5068 33.5557C49.93 33.8812 50.1416 34.2555 50.1416 34.6787C50.0765 35.5739 49.4336 36.5016 48.2129 37.4619C46.748 38.5199 45.2018 39.0488 43.5742 39.0488C42.5 39.0488 41.5723 38.7721 40.791 38.2188C38.9681 36.9167 38.0566 34.2718 38.0566 30.2842C38.0566 29.5029 38.0892 28.681 38.1543 27.8184C38.2845 26.1582 38.4147 25.141 38.5449 24.7666C37.4707 25.32 36.3558 25.5967 35.2002 25.5967C35.07 25.5967 34.8747 25.5804 34.6143 25.5479C34.484 25.5316 34.3864 25.5234 34.3213 25.5234C34.2725 25.556 34.0853 25.6618 33.7598 25.8408C32.6693 26.4756 31.7904 26.793 31.123 26.793C30.9277 26.793 30.7243 26.7441 30.5127 26.6465C30.0081 26.3861 29.7559 26.0117 29.7559 25.5234C29.7559 25.4421 29.764 25.3607 29.7803 25.2793C29.8291 24.9538 30.0814 24.612 30.5371 24.2539C30.7161 24.1237 30.8464 24.0179 30.9277 23.9365C29.9186 23.0088 29.4059 21.7393 29.3896 20.1279C29.3896 19.4281 29.5605 18.777 29.9023 18.1748C30.6185 16.9215 31.7578 16.2949 33.3203 16.2949C34.1178 16.2949 34.8747 16.5065 35.5908 16.9297C36.7627 17.6621 37.3486 18.6712 37.3486 19.957C37.3486 20.722 37.2347 21.4137 37.0068 22.0322C37.251 21.9183 37.6742 21.6497 38.2764 21.2266C39.5133 20.3802 40.3841 19.957 40.8887 19.957C41.556 19.9733 42.1175 20.1768 42.5732 20.5674C42.8174 20.779 42.9476 21.015 42.9639 21.2754C42.9639 21.373 42.9395 21.5195 42.8906 21.7148C42.8418 21.8613 42.8174 21.9671 42.8174 22.0322C41.971 24.8968 41.5479 27.3545 41.5479 29.4053C41.5479 30.3005 41.6536 31.3096 41.8652 32.4326C41.9141 32.7256 41.9466 32.9372 41.9629 33.0674ZM34.2725 20.2744C34.2725 20.1605 34.2562 20.0384 34.2236 19.9082C34.0771 19.5013 33.776 19.2979 33.3203 19.2979C33.2227 19.2979 33.1169 19.3141 33.0029 19.3467C32.5472 19.4932 32.3193 19.8024 32.3193 20.2744C32.3356 21.0394 32.7425 21.6253 33.54 22.0322C34.012 21.5277 34.2562 20.9417 34.2725 20.2744ZM47.9443 31.5293C47.9443 30.9759 47.9769 30.39 48.042 29.7715C48.3838 26.9883 49.2627 24.5143 50.6787 22.3496C52.404 19.6966 54.4792 18.3701 56.9043 18.3701C57.5553 18.3701 58.182 18.4515 58.7842 18.6143C60.9326 19.2327 62.0068 20.7464 62.0068 23.1553C62.0068 23.3343 61.9987 23.5215 61.9824 23.7168C61.8197 25.8978 60.8431 27.7288 59.0527 29.21C57.2949 30.6748 55.2523 31.4072 52.9248 31.4072C52.4854 31.4072 52.054 31.3665 51.6309 31.2852C51.5983 31.5293 51.582 31.8711 51.582 32.3105C51.582 33.2546 51.7448 33.987 52.0703 34.5078C52.5098 35.1751 53.4131 35.5658 54.7803 35.6797C55.3825 35.6797 55.9766 35.6146 56.5625 35.4844C57.5879 35.2402 58.8005 34.6624 60.2002 33.751C61.1117 33.1488 61.7546 32.8477 62.1289 32.8477C62.3405 32.8477 62.5602 32.9128 62.7881 33.043C63.3089 33.3522 63.5693 33.7998 63.5693 34.3857C63.5693 34.5811 63.5286 34.7926 63.4473 35.0205C63.0078 36.0785 61.6895 37.0794 59.4922 38.0234C57.4577 38.9023 55.6673 39.3418 54.1211 39.3418C53.5352 39.3418 52.9899 39.293 52.4854 39.1953C49.458 38.5768 47.9443 36.0215 47.9443 31.5293ZM55.7812 22.2031C54.3001 23.196 53.1364 25.084 52.29 27.8672C52.6969 27.9648 53.0876 28.0137 53.4619 28.0137C54.8128 28.0137 55.9928 27.5986 57.002 26.7686C58.125 25.8571 58.6865 24.7747 58.6865 23.5215C58.6865 22.2682 58.2878 21.6335 57.4902 21.6172C56.9206 21.6335 56.3509 21.8288 55.7812 22.2031ZM63.2031 31.334C63.2031 30.7806 63.2357 30.1947 63.3008 29.5762C63.6426 26.7767 64.5215 24.2946 65.9375 22.1299C67.6628 19.4932 69.738 18.1748 72.1631 18.1748C73.2048 18.1748 74.1162 18.3783 74.8975 18.7852C75.223 18.3945 75.6706 18.1911 76.2402 18.1748C76.5658 18.1748 76.7692 18.1992 76.8506 18.248C77.5505 18.4759 77.9004 19.1676 77.9004 20.3232C77.9004 20.7952 77.819 21.8125 77.6562 23.375C77.1517 27.9974 76.8994 30.8701 76.8994 31.9932C76.8994 32.7419 77.054 33.4417 77.3633 34.0928C77.819 35.0693 78.4212 35.5576 79.1699 35.5576C79.3164 35.5576 79.471 35.5413 79.6338 35.5088C80.1221 35.4111 80.8219 35.0368 81.7334 34.3857C82.6286 33.7347 83.3447 33.4092 83.8818 33.4092C84.0934 33.4092 84.3132 33.4824 84.541 33.6289C85.013 33.9544 85.249 34.3857 85.249 34.9229C85.2002 35.7692 84.5573 36.6481 83.3203 37.5596C81.8392 38.6012 80.2686 39.1221 78.6084 39.1221C76.5576 39.1058 75.0439 38.0723 74.0674 36.0215C73.8395 36.2982 73.5791 36.5749 73.2861 36.8516C71.6748 38.3652 70.0391 39.1221 68.3789 39.1221C67.3372 39.1221 66.4339 38.8535 65.6689 38.3164C64.0251 37.112 63.2031 34.7845 63.2031 31.334ZM73.9453 23.3018C73.9453 23.3018 74.0023 22.7484 74.1162 21.6416C73.7581 21.4626 73.3838 21.373 72.9932 21.373C72.7002 21.373 72.3991 21.4137 72.0898 21.4951C70.5762 21.9183 69.2985 23.318 68.2568 25.6943C67.3291 27.8265 66.8652 29.9668 66.8652 32.1152C66.8652 32.1966 66.8652 32.278 66.8652 32.3594C66.9141 34.3451 67.4186 35.3379 68.3789 35.3379C68.8835 35.3216 69.502 35.0449 70.2344 34.5078C70.9831 33.9707 71.5283 33.4661 71.8701 32.9941C72.0817 32.6849 72.3665 31.7816 72.7246 30.2842C73.3757 27.501 73.7826 25.1735 73.9453 23.3018ZM87.8857 36.0459C87.8206 36.6318 87.6497 37.1608 87.373 37.6328C86.901 38.4303 86.307 38.8291 85.5908 38.8291C85.4118 38.8291 85.2409 38.7965 85.0781 38.7314C84.2643 38.3896 83.8574 37.527 83.8574 36.1436L85.9326 20.7383C85.9652 20.4453 86.014 20.1686 86.0791 19.9082C86.3558 18.5573 86.9824 17.8818 87.959 17.8818C88.1706 17.8818 88.374 17.9062 88.5693 17.9551C89.2692 18.1504 89.6191 18.8421 89.6191 20.0303C89.6191 20.5023 89.5947 21.0394 89.5459 21.6416C89.5622 21.609 89.5866 21.5684 89.6191 21.5195C90.8398 19.3385 92.5732 18.248 94.8193 18.248C95.4867 18.248 96.1784 18.4271 96.8945 18.7852C98.0013 19.3548 98.7012 20.1198 98.9941 21.0801C100.166 19.3223 101.785 18.4352 103.853 18.4189C104.65 18.4189 105.391 18.6631 106.074 19.1514C107.067 19.8675 107.563 20.8278 107.563 22.0322C107.563 22.8135 107.555 24.0098 107.539 25.6211C107.507 27.3952 107.49 28.7542 107.49 29.6982C107.49 30.4307 107.507 31.0654 107.539 31.6025C107.734 34.1579 108.516 35.4355 109.883 35.4355C110.046 35.4355 110.216 35.4193 110.396 35.3867C110.868 35.2728 111.559 34.8903 112.471 34.2393C113.366 33.5882 114.082 33.2627 114.619 33.2627C114.831 33.2627 115.034 33.3278 115.229 33.458C115.734 33.7673 115.986 34.2474 115.986 34.8984C115.986 34.9473 115.978 35.0124 115.962 35.0938C115.848 35.875 115.173 36.6807 113.936 37.5107C112.422 38.5361 110.916 39.0488 109.419 39.0488C108.198 39.0488 107.165 38.7152 106.318 38.0479C104.577 36.6481 103.706 33.5801 103.706 28.8438C103.706 28.5671 103.714 28.1195 103.73 27.501C103.763 26.6058 103.779 25.8327 103.779 25.1816C103.779 23.4727 103.584 22.6019 103.193 22.5693C102.868 22.5693 102.485 22.8216 102.046 23.3262C100.907 24.6445 99.6859 27.0778 98.3838 30.626L97.9688 34.8008C97.8711 35.875 97.7327 36.6969 97.5537 37.2666C97.2119 38.3734 96.5609 38.9268 95.6006 38.9268C95.3402 38.9268 95.096 38.8698 94.8682 38.7559C94.1683 38.4303 93.8184 37.7549 93.8184 36.7295C93.8184 35.7367 94.0462 33.9544 94.502 31.3828C95.1204 27.8509 95.4297 25.4339 95.4297 24.1318C95.4297 23.79 95.3971 23.4889 95.332 23.2285C95.2018 22.6751 94.86 22.3984 94.3066 22.3984C94.0137 22.4147 93.6882 22.5856 93.3301 22.9111C92.1257 24.0505 90.791 26.7035 89.3262 30.8701C88.3659 33.5882 87.8857 35.3135 87.8857 36.0459ZM116.084 18.0771C117.126 18.0934 117.663 18.7282 117.695 19.9814C117.695 20.2256 117.63 20.7546 117.5 21.5684C116.947 25.1979 116.67 27.8265 116.67 29.4541C116.67 32.9697 117.565 34.7438 119.355 34.7764C119.746 34.7438 120.12 34.6136 120.479 34.3857C121.992 33.4092 123.132 30.2842 123.896 25.0107C124.092 23.6436 124.23 22.1217 124.312 20.4453C124.328 20.2826 124.336 20.1849 124.336 20.1523C124.352 20.0384 124.368 19.9326 124.385 19.835C124.58 18.7445 125.19 18.1992 126.216 18.1992C126.411 18.1992 126.606 18.2318 126.802 18.2969C127.534 18.5573 127.9 19.2572 127.9 20.3965C127.9 20.5267 127.892 20.7057 127.876 20.9336C127.876 21.0801 127.876 21.1777 127.876 21.2266L125.41 39.2197C129.333 36.2738 131.644 34.4997 132.344 33.8975C132.979 33.3766 133.605 33.1162 134.224 33.1162C134.435 33.1162 134.655 33.1813 134.883 33.3115C135.355 33.6208 135.591 34.0358 135.591 34.5566C135.575 35.3216 135.127 36.0785 134.248 36.8271C132.604 38.2269 129.43 40.7253 124.727 44.3223L123.628 52.3545C123.351 54.2751 122.472 55.7318 120.991 56.7246C119.95 57.4082 118.883 57.75 117.793 57.75C116.296 57.75 114.969 57.1885 113.813 56.0654C112.69 54.9424 112.129 53.681 112.129 52.2812C112.129 50.8001 112.495 49.5957 113.228 48.668C113.602 48.196 114.359 47.5368 115.498 46.6904C115.645 46.5277 117.598 45.0547 121.357 42.2715C121.569 40.8066 121.789 39.3825 122.017 37.999C121.073 38.4385 119.982 38.6582 118.745 38.6582C118.159 38.6582 117.606 38.585 117.085 38.4385C114.237 37.5758 112.812 34.4427 112.812 29.0391C112.829 26.3535 113.114 23.7412 113.667 21.2021C114.123 19.2327 114.928 18.1911 116.084 18.0771ZM120.161 50.4258C120.161 50.4258 120.299 49.4248 120.576 47.4229C118.9 48.6924 117.996 49.3841 117.866 49.498C116.694 50.4095 116.1 51.2396 116.084 51.9883C116.084 52.265 116.133 52.5335 116.23 52.7939C116.507 53.5101 117.028 53.8682 117.793 53.8682C118.086 53.8682 118.346 53.8193 118.574 53.7217C119.388 53.4124 119.917 52.3138 120.161 50.4258ZM172.09 9.8252C171.732 8.94629 171.292 8.14876 170.771 7.43262C169.502 5.75618 168.102 4.91797 166.572 4.91797C165.579 4.91797 164.578 5.28418 163.569 6.0166C161.649 7.38379 159.997 9.76009 158.613 13.1455C157.165 16.6286 156.44 20.0465 156.44 23.3994C156.44 26.6221 156.961 29.3076 158.003 31.4561C159.159 33.8324 160.737 35.0205 162.739 35.0205C163.667 35.0205 164.701 34.5973 165.84 33.751C167.63 32.4001 169.168 30.4388 170.454 27.8672C170.487 27.7695 170.535 27.6719 170.601 27.5742C170.975 26.9395 171.52 26.6221 172.236 26.6221C172.578 26.6221 172.904 26.7035 173.213 26.8662C173.864 27.2406 174.189 27.8102 174.189 28.5752C174.189 28.8519 174.108 29.1693 173.945 29.5273C172.904 31.7409 171.65 33.6208 170.186 35.167C167.744 37.7223 165.124 39 162.324 39C161.966 39 161.608 38.9756 161.25 38.9268C158.743 38.5687 156.668 37.0794 155.024 34.459C153.201 31.5456 152.29 27.8997 152.29 23.5215C152.29 20.9173 152.664 18.2806 153.413 15.6113C154.585 11.4121 156.392 7.92904 158.833 5.16211C161.388 2.29753 164.09 0.865234 166.938 0.865234C168.159 0.865234 169.323 1.13379 170.43 1.6709C172.773 2.84277 174.531 5.04818 175.703 8.28711C175.833 8.59635 175.898 8.89746 175.898 9.19043C175.898 9.53223 175.809 9.85775 175.63 10.167C175.239 10.818 174.678 11.1436 173.945 11.1436C173.197 11.0947 172.578 10.6553 172.09 9.8252ZM190.596 39C186.673 38.8372 183.768 36.4447 181.88 31.8223C180.48 28.3392 179.78 24.0749 179.78 19.0293C179.78 18.7689 179.797 18.4352 179.829 18.0283C180.057 14.5941 180.692 11.4447 181.733 8.58008C183.426 3.95768 185.819 1.64648 188.911 1.64648C189.074 1.64648 189.245 1.65462 189.424 1.6709C192.24 1.84993 193.647 3.48568 193.647 6.57812C193.647 9.94727 192.199 13.6908 189.302 17.8086C187.463 20.429 185.534 22.5531 183.516 24.1807C184.069 27.2731 184.679 29.5924 185.347 31.1387C186.584 34.0033 188.423 35.4355 190.864 35.4355C191.027 35.4355 191.198 35.4193 191.377 35.3867C191.914 35.2891 192.663 34.8984 193.623 34.2148C194.551 33.5801 195.275 33.2627 195.796 33.2627C196.024 33.2627 196.243 33.3359 196.455 33.4824C196.927 33.8079 197.163 34.2474 197.163 34.8008C197.131 35.6471 196.528 36.5179 195.356 37.4131C193.892 38.471 192.305 39 190.596 39ZM188.936 5.33301C187.975 5.34928 187.129 5.76432 186.396 6.57812C184.541 8.67773 183.524 13.0641 183.345 19.7373C184.321 18.7445 185.298 17.5726 186.274 16.2217C188.976 12.527 190.327 9.41016 190.327 6.87109C190.327 6.74089 190.295 6.58626 190.229 6.40723C189.969 5.69108 189.538 5.33301 188.936 5.33301ZM214.937 27.4277C214.937 27.4277 215.588 24.8398 216.89 19.6641C217.231 18.8177 217.834 18.3864 218.696 18.3701C219.022 18.3864 219.347 18.4189 219.673 18.4678C222.407 18.9072 224.629 20.2988 226.338 22.6426C227.933 24.8398 228.73 27.3464 228.73 30.1621C228.698 31.9036 228.291 33.6777 227.51 35.4844C226.615 37.4538 225.565 38.4385 224.36 38.4385C224.035 38.4385 223.726 38.3001 223.433 38.0234C223.009 37.6165 222.798 37.1689 222.798 36.6807C222.798 36.4691 222.839 36.2493 222.92 36.0215C222.92 36.0215 223.018 35.8424 223.213 35.4844C224.385 33.6126 224.979 31.7165 224.995 29.7959C224.995 29.568 224.987 29.3402 224.971 29.1123C224.808 27.0127 223.986 25.2305 222.505 23.7656C221.561 22.7891 220.698 22.2926 219.917 22.2764C219.754 22.8949 219.486 24.0179 219.111 25.6455C218.281 29.2913 217.484 31.9443 216.719 33.6045C215.042 37.1689 212.609 38.9512 209.419 38.9512C207.368 38.9349 205.871 37.9014 204.927 35.8506C204.715 36.0947 204.471 36.347 204.194 36.6074C202.55 38.1699 200.89 38.9512 199.214 38.9512C198.172 38.9512 197.277 38.6826 196.528 38.1455C194.852 36.9574 194.014 34.6299 194.014 31.1631C194.014 30.6097 194.046 30.0238 194.111 29.4053C194.453 26.6221 195.332 24.1481 196.748 21.9834C198.49 19.3304 200.573 18.0039 202.998 18.0039C204.056 18.0039 204.976 18.2074 205.757 18.6143C206.082 18.2236 206.514 18.0202 207.051 18.0039C207.262 18.0039 207.466 18.0283 207.661 18.0771C208.361 18.2725 208.711 18.9642 208.711 20.1523C208.711 20.6243 208.63 21.6416 208.467 23.2041C207.962 27.8265 207.71 30.6992 207.71 31.8223C207.71 32.4408 207.816 33.0348 208.027 33.6045C208.434 34.7601 209.077 35.3379 209.956 35.3379C211.014 35.3216 211.95 34.6868 212.764 33.4336C213.447 32.3268 214.172 30.3249 214.937 27.4277ZM202.705 32.8232C202.819 32.6442 202.957 32.2943 203.12 31.7734C203.787 29.5599 204.398 26.1338 204.951 21.4951C204.544 21.2998 204.17 21.2021 203.828 21.2021C203.519 21.2021 203.21 21.2428 202.9 21.3242C201.403 21.7799 200.133 23.196 199.092 25.5723C198.148 27.7044 197.676 29.8285 197.676 31.9443C197.676 32.2536 197.692 32.5465 197.725 32.8232C197.871 34.402 198.368 35.1914 199.214 35.1914C199.67 35.1914 200.223 34.9635 200.874 34.5078C201.639 33.9707 202.249 33.4092 202.705 32.8232ZM232.368 24.9619C232.384 24.9294 232.417 24.8561 232.466 24.7422C233.947 21.3893 234.688 19.6966 234.688 19.6641C234.688 19.6478 234.696 19.6315 234.712 19.6152C235.037 18.7852 235.656 18.3701 236.567 18.3701C236.893 18.3864 237.227 18.4189 237.568 18.4678C240.303 18.891 242.524 20.2826 244.233 22.6426C245.812 24.8398 246.602 27.3464 246.602 30.1621C246.602 31.6432 246.309 33.1976 245.723 34.8252C244.876 37.2178 243.721 38.4141 242.256 38.4141C241.995 38.4141 241.727 38.3245 241.45 38.1455C240.929 37.7549 240.669 37.2503 240.669 36.6318C240.669 36.4202 240.718 36.2005 240.815 35.9727C240.815 35.9727 240.905 35.8099 241.084 35.4844C242.256 33.5801 242.85 31.6839 242.866 29.7959C242.866 29.5843 242.858 29.3646 242.842 29.1367C242.679 27.0371 241.865 25.2467 240.4 23.7656C239.44 22.7891 238.577 22.2926 237.812 22.2764C237.536 22.7972 236.942 23.9609 236.03 25.7676C236.03 25.7676 236.022 25.7839 236.006 25.8164C235.99 25.849 235.973 25.8734 235.957 25.8896C235.257 27.2406 234.517 27.916 233.735 27.916C233.507 27.916 233.271 27.8672 233.027 27.7695C232.376 27.4766 232.051 26.9883 232.051 26.3047C232.051 26.0443 232.132 25.6781 232.295 25.2061C232.327 25.0921 232.352 25.0107 232.368 24.9619ZM261.934 33.0674C261.934 33.0837 261.942 33.0999 261.958 33.1162C262.479 34.6299 263.171 35.3867 264.033 35.3867C264.538 35.3542 265.352 34.9961 266.475 34.3125C267.484 33.6452 268.241 33.3115 268.745 33.3115C268.989 33.3115 269.233 33.3929 269.478 33.5557C269.901 33.8812 270.112 34.2555 270.112 34.6787C270.047 35.5739 269.404 36.5016 268.184 37.4619C266.719 38.5199 265.173 39.0488 263.545 39.0488C262.471 39.0488 261.543 38.7721 260.762 38.2188C258.939 36.9167 258.027 34.2718 258.027 30.2842C258.027 29.5029 258.06 28.681 258.125 27.8184C258.255 26.1582 258.385 25.141 258.516 24.7666C257.441 25.32 256.326 25.5967 255.171 25.5967C255.041 25.5967 254.845 25.5804 254.585 25.5479C254.455 25.5316 254.357 25.5234 254.292 25.5234C254.243 25.556 254.056 25.6618 253.73 25.8408C252.64 26.4756 251.761 26.793 251.094 26.793C250.898 26.793 250.695 26.7441 250.483 26.6465C249.979 26.3861 249.727 26.0117 249.727 25.5234C249.727 25.4421 249.735 25.3607 249.751 25.2793C249.8 24.9538 250.052 24.612 250.508 24.2539C250.687 24.1237 250.817 24.0179 250.898 23.9365C249.889 23.0088 249.377 21.7393 249.36 20.1279C249.36 19.4281 249.531 18.777 249.873 18.1748C250.589 16.9215 251.729 16.2949 253.291 16.2949C254.089 16.2949 254.845 16.5065 255.562 16.9297C256.733 17.6621 257.319 18.6712 257.319 19.957C257.319 20.722 257.205 21.4137 256.978 22.0322C257.222 21.9183 257.645 21.6497 258.247 21.2266C259.484 20.3802 260.355 19.957 260.859 19.957C261.527 19.9733 262.088 20.1768 262.544 20.5674C262.788 20.779 262.918 21.015 262.935 21.2754C262.935 21.373 262.91 21.5195 262.861 21.7148C262.812 21.8613 262.788 21.9671 262.788 22.0322C261.942 24.8968 261.519 27.3545 261.519 29.4053C261.519 30.3005 261.624 31.3096 261.836 32.4326C261.885 32.7256 261.917 32.9372 261.934 33.0674ZM254.243 20.2744C254.243 20.1605 254.227 20.0384 254.194 19.9082C254.048 19.5013 253.747 19.2979 253.291 19.2979C253.193 19.2979 253.088 19.3141 252.974 19.3467C252.518 19.4932 252.29 19.8024 252.29 20.2744C252.306 21.0394 252.713 21.6253 253.511 22.0322C253.983 21.5277 254.227 20.9417 254.243 20.2744ZM273.848 18.4922C274.417 18.5085 274.954 18.5654 275.459 18.6631C277.965 19.2002 279.504 21.1533 280.073 24.5225C280.382 24.3434 280.895 24.0098 281.611 23.5215C282.588 22.8542 283.328 22.5205 283.833 22.5205C284.077 22.5205 284.313 22.5938 284.541 22.7402C285.046 23.0658 285.298 23.5052 285.298 24.0586C285.282 24.612 284.924 25.2223 284.224 25.8896C283.231 26.8011 281.945 27.5742 280.366 28.209C280.35 30.748 279.967 32.8965 279.219 34.6543C277.998 37.5189 275.996 38.9512 273.213 38.9512C272.22 38.9512 271.227 38.6338 270.234 37.999C267.939 36.4854 266.792 33.7591 266.792 29.8203C266.792 27.444 267.191 25.2793 267.988 23.3262C269.242 20.25 271.195 18.6387 273.848 18.4922ZM276.899 28.8438C276.265 28.8275 275.662 28.7624 275.093 28.6484C272.944 28.1927 271.561 27.0534 270.942 25.2305C270.519 26.5977 270.308 28.0869 270.308 29.6982C270.308 30.4795 270.381 31.2363 270.527 31.9688C270.983 34.1986 271.976 35.3135 273.506 35.3135C274.01 35.3135 274.466 35.1589 274.873 34.8496C276.061 33.9382 276.737 31.9362 276.899 28.8438ZM276.533 25.5234C276.533 25.5234 276.647 25.5234 276.875 25.5234C276.631 23.2936 276.045 22.1706 275.117 22.1543C275.036 22.1543 274.954 22.1624 274.873 22.1787C274.515 22.3089 274.336 22.5775 274.336 22.9844C274.336 23.3424 274.393 23.6924 274.507 24.0342C274.865 25.027 275.54 25.5234 276.533 25.5234ZM286.47 36.0459C286.405 36.6318 286.234 37.1608 285.957 37.6328C285.485 38.4303 284.891 38.8291 284.175 38.8291C283.996 38.8291 283.825 38.7965 283.662 38.7314C282.848 38.3896 282.441 37.527 282.441 36.1436L284.517 20.7383C284.549 20.4453 284.598 20.1686 284.663 19.9082C284.94 18.5573 285.566 17.8818 286.543 17.8818C286.755 17.8818 286.958 17.9062 287.153 17.9551C287.853 18.1504 288.203 18.8421 288.203 20.0303C288.203 20.5023 288.179 21.0394 288.13 21.6416C288.146 21.609 288.171 21.5684 288.203 21.5195C289.424 19.3385 291.157 18.248 293.403 18.248C294.071 18.248 294.762 18.4271 295.479 18.7852C296.585 19.3548 297.285 20.1198 297.578 21.0801C298.75 19.3223 300.369 18.4352 302.437 18.4189C303.234 18.4189 303.975 18.6631 304.658 19.1514C305.651 19.8675 306.147 20.8278 306.147 22.0322C306.147 22.8135 306.139 24.0098 306.123 25.6211C306.09 27.3952 306.074 28.7542 306.074 29.6982C306.074 30.4307 306.09 31.0654 306.123 31.6025C306.318 34.1579 307.1 35.4355 308.467 35.4355C308.63 35.4355 308.8 35.4193 308.979 35.3867C309.451 35.2728 310.143 34.8903 311.055 34.2393C311.95 33.5882 312.666 33.2627 313.203 33.2627C313.415 33.2627 313.618 33.3278 313.813 33.458C314.318 33.7673 314.57 34.2474 314.57 34.8984C314.57 34.9473 314.562 35.0124 314.546 35.0938C314.432 35.875 313.757 36.6807 312.52 37.5107C311.006 38.5361 309.5 39.0488 308.003 39.0488C306.782 39.0488 305.749 38.7152 304.902 38.0479C303.161 36.6481 302.29 33.5801 302.29 28.8438C302.29 28.5671 302.298 28.1195 302.314 27.501C302.347 26.6058 302.363 25.8327 302.363 25.1816C302.363 23.4727 302.168 22.6019 301.777 22.5693C301.452 22.5693 301.069 22.8216 300.63 23.3262C299.491 24.6445 298.27 27.0778 296.968 30.626L296.553 34.8008C296.455 35.875 296.317 36.6969 296.138 37.2666C295.796 38.3734 295.145 38.9268 294.185 38.9268C293.924 38.9268 293.68 38.8698 293.452 38.7559C292.752 38.4303 292.402 37.7549 292.402 36.7295C292.402 35.7367 292.63 33.9544 293.086 31.3828C293.704 27.8509 294.014 25.4339 294.014 24.1318C294.014 23.79 293.981 23.4889 293.916 23.2285C293.786 22.6751 293.444 22.3984 292.891 22.3984C292.598 22.4147 292.272 22.5856 291.914 22.9111C290.71 24.0505 289.375 26.7035 287.91 30.8701C286.95 33.5882 286.47 35.3135 286.47 36.0459Z" fill="black"/>
</svg>
