<svg width="159" height="54" viewBox="0 0 159 54" fill="none" xmlns="http://www.w3.org/2000/svg">
<g clip-path="url(#clip0_2705_533)">
<path d="M8.93234 40.553C7.53789 39.3005 6.27566 38.2325 5.09973 37.3257C3.92391 36.419 2.83428 35.6735 1.78503 35.0657C0.199588 34.1474 0.199588 31.8732 1.78503 30.9548C2.83428 30.347 3.92391 29.6016 5.09973 28.6948C6.27556 27.788 7.53779 26.7202 8.93234 25.4675V40.553Z" fill="#1F1C14"/>
<path d="M19.9522 32.1396C18.0659 30.4469 9.99265 27.3076 7.30002 27.6396C7.21372 27.8387 7.13184 28.04 7.05489 28.2435C6.49281 29.7319 6.18655 31.337 6.18655 33.0104C6.18655 34.6839 6.49292 36.2889 7.05489 37.7774C8.33427 41.1655 10.9386 43.9489 14.2705 45.5572C16.2619 46.5184 18.513 47.0598 20.8966 47.0598C20.9256 47.0598 20.9544 47.0588 20.9834 47.0586C20.4146 43.4909 19.9794 37.7906 19.9522 32.1396Z" fill="#F7E969"/>
<path d="M20.9836 18.9624C20.9546 18.9622 20.9259 18.9612 20.897 18.9612C18.5134 18.9612 16.2621 19.5027 14.2708 20.4638C11.1391 21.9755 8.6504 24.5254 7.30023 27.6397C7.68159 28.2936 8.13764 28.9087 8.66663 29.471C10.561 31.4853 13.233 32.6406 15.9976 32.6406C17.1501 32.6406 18.5283 32.4599 19.9524 32.1397C19.9288 27.2344 20.2124 22.3661 20.9836 18.9624Z" fill="#F8D071"/>
<path d="M22.8694 31.0251C20.6611 30.4474 15.9715 30.6079 14.2796 32.4907C14.2749 32.6635 14.2709 32.8364 14.2709 33.0104C14.2709 36.477 15.1971 39.6974 16.7832 42.3689C17.8912 44.235 19.3221 45.8316 20.9834 47.0587C23.3348 47.0458 25.5558 46.5068 27.5229 45.5573C28.8608 44.9115 30.0811 44.0758 31.1457 43.088C31.0029 43.0433 24.2924 32.495 22.8694 31.0251Z" fill="#1F1C14"/>
<path d="M27.5229 20.4638C25.5558 19.5143 23.3349 18.9753 20.9834 18.9624C19.3221 20.1894 17.8911 21.7861 16.7832 23.6522C15.2768 26.1895 14.3673 29.2225 14.2796 32.4909C14.8441 32.5894 15.4187 32.6408 15.9974 32.6408C17.1727 32.6408 18.5823 32.4538 20.0365 32.1216C20.3512 33.3579 20.821 34.5344 21.4441 35.6421C23.5473 39.3814 27.0836 41.8224 31.1458 43.0881C32.7324 41.6159 33.973 39.8052 34.7386 37.7777C35.3007 36.2893 35.6069 34.6841 35.6069 33.0107C35.6069 31.3372 35.3006 29.7321 34.7386 28.2437C33.4592 24.8555 30.8549 22.0721 27.5229 20.4638Z" fill="#1F1C14"/>
<path d="M29.5179 24.9226C27.9778 26.4626 24.983 25.9072 22.2032 24.6838C19.9946 23.7119 17.9217 22.3182 16.8224 21.2188C15.5309 19.9274 14.9112 18.2187 14.9631 16.5268C15.011 14.9656 15.6308 13.4186 16.8224 12.227C18.014 11.0353 19.5609 10.4156 21.1221 10.3678C22.8141 10.3159 24.5227 10.9356 25.8141 12.227C26.9135 13.3264 28.3071 15.3992 29.2791 17.6078C30.5025 20.3877 31.0579 23.3826 29.5179 24.9226Z" fill="#81DDFD"/>
<path d="M27.0672 13.7341C24.2834 15.63 22.1258 18.2803 20.8577 21.4177C20.5664 22.1384 20.3249 22.8776 20.1313 23.632C20.7891 24.0105 21.4886 24.3694 22.2031 24.6838C24.9829 25.9071 27.9778 26.4625 29.5178 24.9225C31.0578 23.3825 30.5024 20.3876 29.2792 17.6078C28.653 16.185 27.8519 14.8203 27.0672 13.7341Z" fill="#30CDFA"/>
<path d="M19.5635 28.4264C21.8796 26.093 23.0355 21.0662 22.8501 17.8192C22.6529 17.7347 22.4536 17.6529 22.2523 17.5747C20.0033 16.7002 17.5521 16.22 15.9974 16.22C14.171 16.22 12.5247 16.99 11.365 18.223C10.2949 19.3608 9.63919 20.893 9.63919 22.5782C9.63919 24.2634 10.2949 25.7955 11.365 26.9333C12.5247 28.1663 14.1711 28.9363 15.9974 28.9363C16.9386 28.9363 18.2089 28.7592 19.5635 28.4264Z" fill="#A3E6FF"/>
<path d="M27.5935 22.5778C27.5935 20.5547 25.427 18.9229 22.8503 17.8188C22.0485 18.9241 21.3782 20.1297 20.8578 21.4173C19.9735 23.6053 19.5336 25.9688 19.5636 28.4259C20.4465 28.209 21.365 27.9263 22.2525 27.5812C25.083 26.4808 27.5935 24.7558 27.5935 22.5778Z" fill="#81DDFD"/>
<path d="M52.1699 22.8056C50.8923 19.6444 48.4667 17.0708 45.1396 15.5852C43.1434 14.6938 40.8228 14.1941 38.2311 14.1941C38.1191 14.1941 38.0082 14.1962 37.8972 14.1981C29.1643 19.7969 29.2156 35.3383 39.2278 40.3938C41.1253 40.3099 42.9266 39.9868 44.5655 39.4376C47.7372 38.3747 50.3029 36.4683 51.7892 33.8257C52.6925 32.2198 53.1973 30.3421 53.1973 28.2166C53.1973 26.2987 52.8428 24.4706 52.1699 22.8056Z" fill="#F7E969"/>
<path d="M37.8972 14.1985C35.4399 14.2396 33.2323 14.7327 31.3224 15.5855C27.9955 17.0711 25.5699 19.6447 24.2921 22.806C23.6192 24.471 23.2647 26.299 23.2647 28.217C23.2647 30.3425 23.7695 32.2202 24.6728 33.8261C26.1592 36.4687 28.7247 38.3752 31.8964 39.438C33.8201 40.0827 35.9668 40.417 38.231 40.417C38.5661 40.417 38.8982 40.4088 39.2278 40.3942C34.3562 34.1918 34.9258 21.1463 37.8972 14.1985Z" fill="#F8D071"/>
<path d="M34.0568 20.1514C33.6313 20.1514 33.2863 19.8066 33.2863 19.3809C33.2863 18.4516 32.9454 16.4015 32.1969 14.0966C31.7306 12.6609 31.1713 11.3454 30.5794 10.2928C30.3708 9.92181 30.5024 9.452 30.8734 9.24344C31.2444 9.03509 31.7141 9.16659 31.9227 9.53747C32.5728 10.6939 33.1581 12.0676 33.6625 13.6207C34.3592 15.7659 34.8273 18.0808 34.8273 19.3808C34.8274 19.8066 34.4824 20.1514 34.0568 20.1514Z" fill="#1F1C14"/>
<path d="M31.2511 11.6905C32.6006 11.6905 33.6945 10.5966 33.6945 9.24711C33.6945 7.89766 32.6006 6.80371 31.2511 6.80371C29.9017 6.80371 28.8077 7.89766 28.8077 9.24711C28.8077 10.5966 29.9017 11.6905 31.2511 11.6905Z" fill="#1F1C14"/>
<path d="M42.4052 20.1515C41.9797 20.1515 41.6347 19.8066 41.6347 19.381C41.6347 18.0809 42.1028 15.7661 42.7994 13.6208C43.3039 12.0677 43.8892 10.694 44.5393 9.53763C44.7478 9.16665 45.2175 9.03494 45.5885 9.2436C45.9595 9.45215 46.0911 9.92187 45.8826 10.293C45.2908 11.3456 44.7315 12.661 44.2651 14.0968C43.5165 16.4017 43.1757 18.4517 43.1757 19.3811C43.1758 19.8066 42.8308 20.1515 42.4052 20.1515Z" fill="#1F1C14"/>
<path d="M45.211 11.6905C46.5605 11.6905 47.6544 10.5966 47.6544 9.24711C47.6544 7.89766 46.5605 6.80371 45.211 6.80371C43.8616 6.80371 42.7676 7.89766 42.7676 9.24711C42.7676 10.5966 43.8616 11.6905 45.211 11.6905Z" fill="#1F1C14"/>
<path d="M29.9358 32.1056C31.6262 32.1056 32.9965 31.0143 32.9965 29.6681C32.9965 28.322 31.6262 27.2307 29.9358 27.2307C28.2454 27.2307 26.8751 28.322 26.8751 29.6681C26.8751 31.0143 28.2454 32.1056 29.9358 32.1056Z" fill="#FFA1AC"/>
<path d="M46.5262 32.1056C48.2166 32.1056 49.5869 31.0143 49.5869 29.6681C49.5869 28.322 48.2166 27.2307 46.5262 27.2307C44.8358 27.2307 43.4655 28.322 43.4655 29.6681C43.4655 31.0143 44.8358 32.1056 46.5262 32.1056Z" fill="#FFA1AC"/>
<path d="M33.1766 27.7858C32.751 27.7858 32.406 27.4409 32.406 27.0153C32.406 26.6368 32.0981 26.3289 31.7198 26.3289C31.3413 26.3289 31.0334 26.6368 31.0334 27.0153C31.0334 27.4409 30.6884 27.7858 30.2628 27.7858C29.8373 27.7858 29.4923 27.4409 29.4923 27.0153C29.4923 25.7871 30.4915 24.7878 31.7198 24.7878C32.948 24.7878 33.9471 25.7871 33.9471 27.0153C33.9471 27.4409 33.6021 27.7858 33.1766 27.7858Z" fill="#425460"/>
<path d="M46.1993 27.7858C45.7737 27.7858 45.4287 27.4409 45.4287 27.0153C45.4287 26.6368 45.1208 26.3289 44.7424 26.3289C44.3639 26.3289 44.0561 26.6368 44.0561 27.0153C44.0561 27.4409 43.7111 27.7858 43.2855 27.7858C42.86 27.7858 42.515 27.4409 42.515 27.0153C42.515 25.7871 43.5142 24.7878 44.7424 24.7878C45.9706 24.7878 46.9698 25.7871 46.9698 27.0153C46.9698 27.4409 46.6248 27.7858 46.1993 27.7858Z" fill="#425460"/>
<path d="M38.231 30.1926C37.416 30.1926 36.6409 29.8396 36.1047 29.2243C35.8252 28.9035 35.8586 28.4168 36.1794 28.1371C36.5003 27.8575 36.9869 27.8911 37.2666 28.2118C37.5101 28.4914 37.8616 28.6515 38.2311 28.6515C38.6005 28.6515 38.9521 28.4913 39.1955 28.2119C39.475 27.891 39.9617 27.8576 40.2826 28.1371C40.6034 28.4167 40.6369 28.9034 40.3574 29.2242C39.821 29.8397 39.0461 30.1926 38.231 30.1926Z" fill="#425460"/>
</g>
<path d="M68.5567 9.85651C68.9791 9.79943 69.567 9.77089 70.3204 9.77089C72.2838 9.77089 74.0075 10.0962 75.4915 10.7469C78.8019 12.1852 80.4571 15.0618 80.4571 19.3768C80.4571 20.29 80.4172 21.1804 80.3373 22.048C79.8236 27.5729 77.7289 31.5569 74.0532 33.9997C71.6103 35.6207 68.7451 36.4312 65.4575 36.4312C65.195 36.4312 64.9609 36.3627 64.7555 36.2257C64.2989 35.9289 64.0706 35.4437 64.0706 34.7702C64.0706 34.5419 65.1093 26.6825 67.1869 11.1921C67.1983 11.0094 67.2383 10.8382 67.3068 10.6784C67.5465 10.1533 67.9632 9.87934 68.5567 9.85651ZM77.7688 19.4967C77.7688 17.7501 77.415 16.3004 76.7072 15.1475C75.5999 13.3439 73.7735 12.4421 71.2279 12.4421C70.7713 12.4421 70.269 12.482 69.7211 12.5619L67.0671 33.486C67.2383 33.4746 67.4209 33.4632 67.615 33.4518C69.7268 33.2463 71.5989 32.4872 73.2313 31.1744C76.2563 28.743 77.7688 24.8504 77.7688 19.4967ZM92.991 32.2703C92.991 32.2817 92.9967 32.2931 93.0082 32.3045C93.3734 33.3662 93.8586 33.897 94.4636 33.897C94.8175 33.8741 95.3882 33.623 96.1759 33.1436C96.8836 32.6755 97.4144 32.4415 97.7683 32.4415C97.9395 32.4415 98.1108 32.4986 98.282 32.6128C98.5788 32.8411 98.7272 33.1036 98.7272 33.4004C98.6815 34.0282 98.2306 34.6789 97.3745 35.3524C96.3471 36.0944 95.2627 36.4654 94.1211 36.4654C93.3677 36.4654 92.7171 36.2713 92.1691 35.8832C90.8906 34.97 90.2514 33.115 90.2514 30.3183C90.2514 29.7704 90.2742 29.1939 90.3199 28.5889C90.4112 27.4245 90.5025 26.7111 90.5938 26.4485C89.8404 26.8367 89.0585 27.0307 88.248 27.0307C88.1567 27.0307 88.0197 27.0193 87.8371 26.9965C87.7457 26.9851 87.6772 26.9793 87.6316 26.9793C87.5973 27.0022 87.4661 27.0764 87.2378 27.2019C86.4729 27.6471 85.8565 27.8697 85.3885 27.8697C85.2515 27.8697 85.1088 27.8355 84.9604 27.767C84.6066 27.5844 84.4296 27.3218 84.4296 26.9793C84.4296 26.9223 84.4353 26.8652 84.4467 26.8081C84.481 26.5798 84.6579 26.3401 84.9775 26.089C85.1031 25.9976 85.1944 25.9234 85.2515 25.8664C84.5438 25.2157 84.1842 24.3253 84.1728 23.1952C84.1728 22.7043 84.2926 22.2477 84.5324 21.8254C85.0346 20.9464 85.8337 20.5069 86.9296 20.5069C87.4889 20.5069 88.0197 20.6553 88.522 20.9521C89.3439 21.4658 89.7548 22.1735 89.7548 23.0753C89.7548 23.6119 89.6749 24.097 89.5151 24.5308C89.6863 24.4509 89.9831 24.2625 90.4055 23.9657C91.273 23.3721 91.8838 23.0753 92.2376 23.0753C92.7057 23.0868 93.0995 23.2294 93.4191 23.5034C93.5903 23.6518 93.6817 23.8173 93.6931 24C93.6931 24.0685 93.6759 24.1712 93.6417 24.3082C93.6075 24.4109 93.5903 24.4851 93.5903 24.5308C92.9967 26.5399 92.6999 28.2636 92.6999 29.7019C92.6999 30.3297 92.7741 31.0375 92.9225 31.8251C92.9568 32.0306 92.9796 32.179 92.991 32.2703ZM87.5973 23.2979C87.5973 23.218 87.5859 23.1324 87.5631 23.0411C87.4604 22.7557 87.2492 22.613 86.9296 22.613C86.8611 22.613 86.7869 22.6244 86.707 22.6473C86.3873 22.75 86.2275 22.9669 86.2275 23.2979C86.2389 23.8345 86.5243 24.2454 87.0837 24.5308C87.4147 24.1769 87.5859 23.766 87.5973 23.2979ZM97.1861 31.1916C97.1861 30.8034 97.209 30.3925 97.2546 29.9587C97.4943 28.0067 98.1108 26.2716 99.1039 24.7534C100.314 22.8927 101.769 21.9624 103.47 21.9624C103.927 21.9624 104.366 22.0194 104.789 22.1336C106.295 22.5674 107.049 23.629 107.049 25.3184C107.049 25.444 107.043 25.5753 107.032 25.7123C106.918 27.2419 106.233 28.5261 104.977 29.5649C103.744 30.5923 102.312 31.1059 100.679 31.1059C100.371 31.1059 100.068 31.0774 99.7717 31.0203C99.7488 31.1916 99.7374 31.4313 99.7374 31.7395C99.7374 32.4016 99.8516 32.9153 100.08 33.2806C100.388 33.7486 101.022 34.0225 101.981 34.1024C102.403 34.1024 102.82 34.0568 103.23 33.9655C103.95 33.7942 104.8 33.389 105.782 32.7497C106.421 32.3274 106.872 32.1162 107.135 32.1162C107.283 32.1162 107.437 32.1619 107.597 32.2532C107.962 32.4701 108.145 32.784 108.145 33.1949C108.145 33.3319 108.116 33.4803 108.059 33.6401C107.751 34.3821 106.826 35.0842 105.285 35.7462C103.858 36.3627 102.603 36.6709 101.518 36.6709C101.107 36.6709 100.725 36.6366 100.371 36.5681C98.2477 36.1344 97.1861 34.3422 97.1861 31.1916ZM102.683 24.6506C101.644 25.347 100.828 26.6711 100.234 28.6231C100.519 28.6916 100.793 28.7259 101.056 28.7259C102.003 28.7259 102.831 28.4348 103.539 27.8526C104.326 27.2134 104.72 26.4542 104.72 25.5753C104.72 24.6963 104.441 24.2511 103.881 24.2397C103.482 24.2511 103.082 24.3881 102.683 24.6506ZM107.888 31.0546C107.888 30.6665 107.911 30.2555 107.956 29.8217C108.196 27.8583 108.813 26.1175 109.806 24.5993C111.016 22.75 112.471 21.8254 114.172 21.8254C114.903 21.8254 115.542 21.9681 116.09 22.2534C116.318 21.9795 116.632 21.8368 117.032 21.8254C117.26 21.8254 117.402 21.8425 117.46 21.8767C117.95 22.0366 118.196 22.5217 118.196 23.3322C118.196 23.6632 118.139 24.3767 118.025 25.4725C117.671 28.7145 117.494 30.7292 117.494 31.5169C117.494 32.042 117.602 32.5329 117.819 32.9895C118.139 33.6744 118.561 34.0168 119.086 34.0168C119.189 34.0168 119.297 34.0054 119.412 33.9826C119.754 33.9141 120.245 33.6515 120.884 33.1949C121.512 32.7383 122.014 32.51 122.391 32.51C122.539 32.51 122.693 32.5614 122.853 32.6641C123.184 32.8924 123.35 33.1949 123.35 33.5716C123.316 34.1652 122.865 34.7817 121.997 35.4209C120.958 36.1515 119.857 36.5168 118.692 36.5168C117.254 36.5054 116.192 35.7805 115.508 34.3422C115.348 34.5362 115.165 34.7303 114.96 34.9243C113.83 35.986 112.682 36.5168 111.518 36.5168C110.787 36.5168 110.154 36.3284 109.617 35.9517C108.464 35.107 107.888 33.4746 107.888 31.0546ZM115.422 25.4212C115.422 25.4212 115.462 25.033 115.542 24.2568C115.291 24.1312 115.028 24.0685 114.754 24.0685C114.549 24.0685 114.338 24.097 114.121 24.1541C113.059 24.4509 112.163 25.4326 111.432 27.0992C110.782 28.5946 110.456 30.0957 110.456 31.6025C110.456 31.6596 110.456 31.7167 110.456 31.7737C110.491 33.1664 110.844 33.8627 111.518 33.8627C111.872 33.8513 112.306 33.6573 112.819 33.2806C113.344 32.9038 113.727 32.55 113.967 32.2189C114.115 32.002 114.315 31.3685 114.566 30.3183C115.022 28.3663 115.308 26.7339 115.422 25.4212ZM125.199 34.3593C125.153 34.7702 125.034 35.1412 124.84 35.4723C124.508 36.0316 124.092 36.3113 123.59 36.3113C123.464 36.3113 123.344 36.2885 123.23 36.2428C122.659 36.0031 122.374 35.3981 122.374 34.4278L123.829 23.6233C123.852 23.4178 123.886 23.2237 123.932 23.0411C124.126 22.0936 124.566 21.6199 125.25 21.6199C125.399 21.6199 125.542 21.637 125.679 21.6713C126.169 21.8082 126.415 22.2934 126.415 23.1267C126.415 23.4577 126.398 23.8345 126.363 24.2568C126.375 24.234 126.392 24.2054 126.415 24.1712C127.271 22.6416 128.487 21.8767 130.062 21.8767C130.53 21.8767 131.015 22.0023 131.517 22.2534C132.294 22.653 132.785 23.1895 132.99 23.863C133.812 22.6301 134.948 22.008 136.397 21.9966C136.957 21.9966 137.476 22.1678 137.956 22.5103C138.652 23.0126 139 23.6861 139 24.5308C139 25.0787 138.994 25.9177 138.983 27.0478C138.96 28.2921 138.949 29.2453 138.949 29.9074C138.949 30.421 138.96 30.8662 138.983 31.2429C139.12 33.0351 139.668 33.9312 140.627 33.9312C140.741 33.9312 140.861 33.9198 140.986 33.897C141.317 33.8171 141.803 33.5488 142.442 33.0922C143.07 32.6356 143.572 32.4073 143.949 32.4073C144.097 32.4073 144.24 32.4529 144.377 32.5443C144.731 32.7612 144.907 33.0979 144.907 33.5545C144.907 33.5888 144.902 33.6344 144.89 33.6915C144.81 34.2394 144.337 34.8045 143.469 35.3867C142.408 36.1058 141.352 36.4654 140.301 36.4654C139.445 36.4654 138.72 36.2314 138.127 35.7634C136.905 34.7817 136.295 32.6299 136.295 29.3081C136.295 29.114 136.3 28.8001 136.312 28.3663C136.335 27.7385 136.346 27.1962 136.346 26.7396C136.346 25.541 136.209 24.9303 135.935 24.9075C135.707 24.9075 135.439 25.0844 135.13 25.4383C134.331 26.3629 133.475 28.0695 132.562 30.558L132.271 33.486C132.202 34.2394 132.105 34.8159 131.98 35.2154C131.74 35.9917 131.283 36.3798 130.61 36.3798C130.427 36.3798 130.256 36.3398 130.096 36.2599C129.605 36.0316 129.36 35.5579 129.36 34.8387C129.36 34.1424 129.52 32.8924 129.839 31.0888C130.273 28.6117 130.49 26.9166 130.49 26.0033C130.49 25.7636 130.467 25.5524 130.422 25.3698C130.33 24.9817 130.091 24.7876 129.702 24.7876C129.497 24.799 129.269 24.9189 129.017 25.1472C128.173 25.9463 127.237 27.8069 126.209 30.7292C125.536 32.6356 125.199 33.8456 125.199 34.3593ZM144.976 21.7569C145.707 21.7683 146.083 22.2135 146.106 23.0925C146.106 23.2637 146.06 23.6347 145.969 24.2054C145.581 26.751 145.387 28.5946 145.387 29.7361C145.387 32.2018 146.015 33.4461 147.27 33.4689C147.544 33.4461 147.807 33.3547 148.058 33.1949C149.12 32.51 149.919 30.3183 150.455 26.6198C150.592 25.6609 150.689 24.5936 150.746 23.4178C150.758 23.3036 150.763 23.2352 150.763 23.2123C150.775 23.1324 150.786 23.0582 150.798 22.9897C150.935 22.2249 151.363 21.8425 152.082 21.8425C152.219 21.8425 152.356 21.8653 152.493 21.911C153.007 22.0936 153.263 22.5845 153.263 23.3835C153.263 23.4749 153.258 23.6004 153.246 23.7603C153.246 23.863 153.246 23.9315 153.246 23.9657L151.517 36.5853C154.268 34.5191 155.889 33.2748 156.38 32.8525C156.825 32.4872 157.264 32.3045 157.698 32.3045C157.847 32.3045 158.001 32.3502 158.161 32.4415C158.492 32.6584 158.657 32.9495 158.657 33.3148C158.646 33.8513 158.332 34.3821 157.715 34.9072C156.562 35.8889 154.336 37.6412 151.037 40.1639L150.267 45.7973C150.073 47.1443 149.456 48.166 148.418 48.8623C147.687 49.3418 146.939 49.5815 146.175 49.5815C145.124 49.5815 144.194 49.1877 143.384 48.4C142.596 47.6124 142.202 46.7277 142.202 45.746C142.202 44.7072 142.459 43.8625 142.973 43.2118C143.235 42.8808 143.766 42.4184 144.565 41.8248C144.668 41.7107 146.038 40.6776 148.675 38.7256C148.823 37.6982 148.977 36.6994 149.137 35.7291C148.475 36.0373 147.71 36.1914 146.842 36.1914C146.431 36.1914 146.043 36.1401 145.678 36.0373C143.68 35.4323 142.682 33.2349 142.682 29.445C142.693 27.5615 142.893 25.7294 143.281 23.9486C143.6 22.5674 144.165 21.8368 144.976 21.7569ZM147.835 44.4446C147.835 44.4446 147.933 43.7426 148.127 42.3385C146.951 43.2289 146.317 43.7141 146.226 43.794C145.404 44.4332 144.987 45.0154 144.976 45.5405C144.976 45.7346 145.01 45.9229 145.079 46.1056C145.273 46.6078 145.638 46.859 146.175 46.859C146.38 46.859 146.563 46.8247 146.723 46.7562C147.293 46.5393 147.664 45.7688 147.835 44.4446Z" fill="#333333"/>
<defs>
<clipPath id="clip0_2705_533">
<rect width="52.6014" height="52.6014" fill="white" transform="translate(0.595947 0.630371)"/>
</clipPath>
</defs>
</svg>
