<svg height="93.877" viewBox="0 0 71.148 93.877" width="71.148" xmlns="http://www.w3.org/2000/svg"><g fill="#ffc845"><path d="m1039.92 171.931a26.613 26.613 0 0 0 -7.214-13.056c-3.727-3.892-8.051-7-11.331-11.335-6.767-8.95-10.634-21.231-6.151-32 4.477-10.757 16.121-18.4 27.875-16.613 12.749 1.935 21.906 12.154 25.556 23.986a34.268 34.268 0 0 1 -.316 21.36c-1.072 2.987-2.524 5.784-3.232 8.9-.733 3.23-.418 6.421-.164 9.688.043.564 1.789.2 1.738-.465-.288-3.715-.516-7.269.537-10.892.938-3.225 2.576-6.192 3.463-9.427a35.354 35.354 0 0 0 -.287-19.631c-3.644-11.868-12.66-21.859-25.239-24.292-9.819-1.9-19.952 2.121-26.537 9.491-8.167 9.14-8.7 21.07-3.9 31.991a44.444 44.444 0 0 0 11.845 15.714c5.42 4.685 10.112 9.824 11.623 17.049.125.6 1.869.164 1.738-.465z" transform="translate(-1000.782 -87.54)"/><path d="m1046.827 190.9a59.335 59.335 0 0 0 26.88-9.351c.983-.639-.52-.878-1.078-.516a56.3 56.3 0 0 1 -25.565 8.9c-.85.081-1.444 1.075-.237.962z" transform="translate(-1008.53 -106.227)"/><path d="m1050.043 195.366a85.352 85.352 0 0 0 24.949-7.366c1.889-.891.688-1.917-.92-1.583l-.391.081c-2.125.442-1.636 2.176.465 1.738l.391-.081-.919-1.583a78.917 78.917 0 0 1 -23.1 6.87c-1.674.228-2.884 2.252-.475 1.924z" transform="translate(-1009.102 -107.462)"/><path d="m1052.532 199.128a65.522 65.522 0 0 0 23.223-6.307c2.17-1.047.181-2.178-1.373-1.428a60 60 0 0 1 -21.374 5.812c-1.707.139-2.888 2.12-.475 1.924z" transform="translate(-1009.658 -108.539)"/><path d="m1059.071 203.722c3.676.264 7.218-.883 10.743-1.78a19.9 19.9 0 0 0 8.066-3.768c1.535-1.248-1.912-1.282-2.786-.571-2.064 1.678-4.24 2.221-6.753 2.856-2.61.661-5.194 1.487-7.917 1.292-1.332-.1-3.691 1.8-1.352 1.97z" transform="translate(-1011.211 -109.884)"/><path d="m1051.2 181.221a39.988 39.988 0 0 0 -3.65-15.718c-1.591-3.415-3.947-8.773-7.961-9.667-.452-.1-1.228.1-1.4.581-1.116 3.111 1.639 5.175 4.542 5.138a8.818 8.818 0 0 0 7.218-4.326c1.68-2.807 1.862-7.338.035-10.15-.795-1.223-3.094-2.131-3.78-.232-1.057 2.929 3.462 6.287 5.747 6.928a9.106 9.106 0 0 0 7.772-1.606c1.522-1.155 4.713-5.231 1.634-6.569-2.152-.935-3.634 1.539-4.144 3.191-1.375 4.454-.364 10.32.452 14.795a28.415 28.415 0 0 0 5.884 13.369c.382.458 2.05-.157 1.614-.68a28.252 28.252 0 0 1 -5.845-13.628c-.323-1.882-1.655-16.428.886-15.454 1.715.658-.322 3.3-1.144 4.081a6.294 6.294 0 0 1 -7.312 1.039 7.609 7.609 0 0 1 -3.3-3.464c-.167-.359-1.191-2.687-.13-1.007a9.822 9.822 0 0 1 .667 7.935 7.344 7.344 0 0 1 -3.923 4.405c-3.1 1.185-6.253-.873-5.137-3.986l-1.4.581c2.445.544 3.969 3.315 5.178 5.275a38.36 38.36 0 0 1 3.287 6.723 40.318 40.318 0 0 1 2.472 12.908c.017.547 1.758.205 1.738-.466z" transform="translate(-1006.685 -98.26)"/><path d="m1049.5 106.185c4.16.14 8.361 1.089 11.683 3.739a14.144 14.144 0 0 1 3.09 3.391c.506.79 1.477 2.013.808 2.807-.653.774-1.441-.381-2.128-.882a25.9 25.9 0 0 0 -11.037-4.791c-1.155-.209-3-.385-3.9-1.2l-.729-1.894a3.4 3.4 0 0 1 3.7-.911c.463.105 1.7-.6.887-.786-1.623-.37-3.57-.687-5 .434a2.363 2.363 0 0 0 -.2 3.724c1.892 1.9 5.94 1.6 8.362 2.468 3.156 1.127 5.373 3.261 8.248 4.792.959.51 2.409.771 3.275-.161 1.187-1.281-.408-3.4-1.2-4.54-3.46-4.993-9.489-6.812-15.292-7.007-.55-.019-1.539.789-.564.821z" transform="translate(-1008.465 -89.254)"/><path d="m1075.356 128.572a3.146 3.146 0 0 1 3.22 1.916c.216.4 1.288 2.811.722 3.193-.457.309-2.054-1.413-2.329-1.747-.475-.577-2.032-2.828-1.029-3.586l-.679.282.318-.043c.7-.094 1.2-.937.2-.8-2.2.3-1.653 2.344-.793 3.8.823 1.389 2.732 3.42 4.555 2.949 1.92-.5 1.245-2.821.644-4.132a4.2 4.2 0 0 0 -4.629-2.628c-.68.129-1.195.991-.2.8z" transform="translate(-1014.84 -94.283)"/><path d="m1004.711 123.078c-.412.342-2.639-1.054-2.973-1.252a16.072 16.072 0 0 1 -2.693-2.045c-.373-.344-1.735.206-1.345.567a16.176 16.176 0 0 0 4.978 3.219 2.973 2.973 0 0 0 3.2-.251c.636-.528-.8-.539-1.161-.237z" transform="translate(-997.63 -92.48)"/><path d="m1027.133 94.446-.194.109 1.026-.135c-.853-.278-1.41-2.462-1.741-3.25-.321-.763-1.431-2.541-1.1-3.341l-1.006.5.176-.006c.537-.018 1.534-.854.563-.821l-.175.006c-.361.012-.851.128-1.006.5-.307.739.353 1.724.636 2.424q.637 1.577 1.337 3.13c.512 1.137 1.065 2.058 2.383 1.31.847-.481-.425-.7-.9-.429z" transform="translate(-1003.464 -85.252)"/><path d="m1055.053 91.02.367-3.157.157-1.353a6.681 6.681 0 0 1 .144-1.349l-1.253.164.051.08c.074-.167.149-.333.223-.5l-.057.035c-.833.507.43.715.9.43l.057-.035c.183-.111.357-.29.223-.5l-.051-.08c-.232-.363-1.025-.012-1.253.164-.574.444-.435 1.808-.509 2.445l-.452 3.836c-.066.573 1.391.31 1.448-.181z" transform="translate(-1010.205 -84.6)"/><path d="m1080.617 105.1-.066-.016c-.3-.074-.961.058-1.117.378-.1.21-.113.274 0 .471s.6.127.769.078c.906-.261 1.165-1.093 1.6-1.865l1.868-3.3c.334-.591-1.113-.447-1.348-.03a39.884 39.884 0 0 1 -2.731 4.774l.578-.347-.161.046.77.079-.048-.08v.3l.045-.092-1.118.378.067.016c.462.115 1.7-.585.886-.786z" transform="translate(-1015.992 -88.16)"/></g></svg>