<svg height="29.428" viewBox="0 0 31.225 29.428" width="31.225" xmlns="http://www.w3.org/2000/svg"><path d="m677.7 337.227c.211.242 11.794-13.673 12.9-14.992 1.4-1.674 2.738-3.437 4.1-5.171.688-.873 1.962-3.321 2.751-3.563 1.4-.427 1.159.6 1.965 2.483.726 1.693 1.535 3.273 2.334 4.895.658 1.336 2.8 4.742 2.428 6.287l.458.393a11.747 11.747 0 0 0 -2.518.521 78.252 78.252 0 0 0 -7.625 3.11c-5.8 2.46-11.86 6.324-17.937 6.828-.781.065-1.993 1.778-.589 1.778h1c.843 0 2.38-1.8.872-1.8h-1q-.3.89-.589 1.778c7.638-.636 15.284-5.622 22.569-8.681 2.01-.844 4.524-.933 6.429-2.031.374-.215.8-.27 1.045-.8 1.078-2.314-1.572-6.818-2.461-8.623-1.115-2.262-2.653-8.355-4.556-9.154-1.718-.72-3.288 2.108-4.293 3.452-6.192 8.28-13.3 15.05-19.406 23.44-.141.193-.37.62-.142.88l.186.212c.613.7 2.693-.542 2.081-1.241z" fill="#fff" transform="translate(-675.322 -310.368)"/></svg>