<svg height="124.737" viewBox="0 0 91.569 124.737" width="91.569" xmlns="http://www.w3.org/2000/svg"><g fill="#fafafa" opacity=".5"><path d="m377.256 143.969c1.575-5.582 2.837-10.566 9.628-10.462a62.472 62.472 0 0 0 13.9-.976c4.93-1.012 8.441-3.578 11.754-7.267 12.451-13.864 13.14-34.731 4.662-50.89a45.029 45.029 0 0 0 -48.149-23.242c-9.464 1.808-15.955 6.25-22.025 13.575-5.565 6.714-10.755 15.8-11.977 24.572-1.428 10.254 4.186 22.484 11.189 29.686 2.763 2.842 6.837 4.684 8.977 8.084 1.876 2.98.292 6.239-.153 9.426-.078.562-1.769.178-1.681-.451.285-2.041 1.157-4.282 1.068-6.322-.127-2.92-2.607-4.8-4.764-6.434a42.19 42.19 0 0 1 -9.155-9.111c-4.61-6.511-8.139-16.668-7.241-24.648 1.018-9.049 6.456-18.533 12.175-25.46 5.833-7.064 12.136-11.676 21.2-13.561 16.316-3.4 33.394 1.348 44.972 13.716 11.792 12.6 16.672 33.238 10.217 49.52-3 7.558-9.382 16.825-17.6 19.229a44.5 44.5 0 0 1 -13.519 1.744c-4.531-.182-8.51-.316-10.305 4.506-.626 1.681-1 3.489-1.489 5.216-.165.584-1.845.132-1.681-.45z" transform="translate(-333.144 -49.421)"/><path d="m404.46 143.407c-3.04 4.543-10.877 1.136-14.81-.291-4.091-1.485-9.928-2.862-11.033-7.583-.145-.618 1.546-.363 1.681.211.815 3.483 5.5 4.906 8.566 6.16 3.434 1.4 11.478 4.667 14.035.845.311-.465 1.943.087 1.561.658z" transform="translate(-358.412 -49.421)"/><path d="m409.045 148.951c-4.258-.158-7.859-.278-11.99-1.709-1.781-.616-3.414-1.466-5.131-2.23-1.835-.816-10.9-4.459-9.641.541 1.055 4.2 10.288 6.144 13.9 7.2 2.46.718 5.331 1.7 7.9 1.291a4.241 4.241 0 0 0 3.042-5.884c-.232-.5 1.431-.333 1.681.211a5.145 5.145 0 0 1 -2.175 6.271c-1.749.888-4.638.431-6.477.1a62.66 62.66 0 0 1 -9.14-2.762c-2.529-.877-5.236-1.615-7.443-3.2-1.345-.963-3.82-3.164-3.351-5.114.442-1.838 2.891-2.216 4.443-2.021 3.268.41 6.687 2.135 9.63 3.5 4.716 2.188 9.008 2.659 14.089 2.848.624.023 1.78.995.655.953z" transform="translate(-364.973 -49.421)"/><path d="m410.536 159.257a45.682 45.682 0 0 1 -13.632-3.778c-1.754-.78-3.554-1.44-5.32-2.188-1.911-.808-5.609-2.495-6.744.406-.941 2.4 1.385 4.232 3.04 5.259 3.422 2.125 8.1 2.761 12.032 3.569 1.5.309 3.032.706 4.53.99 1.557.3 3.165.445 4.435-.628.866-.732 2.2-2.775.784-3.712-.946-.625.505-.854 1.043-.5 1.6 1.057 1.453 2.858.314 4.307-1.453 1.849-3.447 1.934-5.643 1.6-5.453-.818-12.67-1.922-17.549-4.509-1.914-1.015-4.738-2.816-4.989-5.222a3.626 3.626 0 0 1 3.022-4.1c2.86-.305 6.344 1.71 8.852 2.748 5.178 2.141 9.924 4.172 15.6 4.82.817.093 1.4 1.063.23.93z" transform="translate(-369.991 -49.421)"/><path d="m409.84 167.213.106.026-.225.84c-3.218-.789-6.471-1.232-9.678-2.127-1.666-.464-3.375-.867-5.016-1.412-.073-.024-1.993-.754-1.993-.754-3.543.657 2.645 7.309 4.1 8.111 5.183 2.854 10.188.818 11.937-4.436.195-.586 1.868-.111 1.681.45-2.981 8.957-14.571 7.429-18.92.416-1.047-1.689-2.807-5.675.187-5.945a16.039 16.039 0 0 1 3.231 1.317c1.615.588 3.361.951 5.017 1.413 3.2.893 6.462 1.338 9.677 2.127 1.015.249.791 1.082-.225.84l-.106-.025c-1.017-.243-.791-1.083.225-.841z" transform="translate(-376.413 -49.421)"/><path d="m398.029 167.751c-.453-1.576.407-3.736 2.158-2.022 1.053 1.031 1.729 5.488-.624 5.274-1.814-.166-3.064-3.709-1.131-4.341 2.252-.735 4.21 2.993 3.134 4.644-.119.182-.492.152-.666.136-3.878-.355-3.244-5.424.253-4.163 3.408 1.229 1.728 6.61-1.889 4.4-3.263-1.993 1.593-5.777 4.171-3.5 3.049 2.7-1.452 6-4.182 4.182a2.594 2.594 0 0 1 .177-4.353 5.116 5.116 0 0 1 4.216-.188c3.944 1.552-.531 5.644-3.416 4.634-1.193-.418-1.493-1.186-1.018-2.392.839-2.129 4.182-2.74 6.155-2.187 1.254.352 2.423 1.378 1.7 2.852-.667 1.364-2.849 1.52-4.155 1.281-1.4-.257-3.319-1.421-2.068-3.028 1.013-1.3 4.911-1.3 6.272-.675 3.424 1.569-2.283 4.927-4.167 2.552a.3.3 0 0 1 -.058-.243c.672-1.279 2.091-.988 3.006-1.857q1.1-.157.146-.506a2.085 2.085 0 0 0 -1.962-.355c-1.043-.023-2.259-.136-3.3-.078l.456-.494c.541.61 2.343.8 3.05 1 .479.137 3.454 1 2.713.185-.917-1-1.98.6-2.91 1.328a7.431 7.431 0 0 1 -1.831 1.109c-1.581.616-4.46.649-4.616-1.571-.4-5.681 10.174 1.29 4.814 3.2-1.957.7-5.423-.887-6.663-2.381-1.03-1.241-2.561-4.841-.123-5.291 4.383-.809 4.779 8.136.121 4.674-1.234-.916-3.4-4.929-.785-5.4 2.486-.446 3.439 4.382 3.131 5.852-.072.346-.746.259-.953.2-1.414-.432-4.722-3.793-2.793-5.282 1.68-1.3 3.648 2.222 4.053 3.154.678 1.561 1.326 4.446-1.271 3.779-2.743-.7-3.809-4.824-4.552-7.034-.121-.361.548-.39.726-.36 3.08.534 5.547 2.768 8.747 3.212l-.668.483c-.783-1.332-5.051-2.485-6.375-2.981l.664-.691c1.151.537 3.758 2.151 4.964 1.8-.007 0 .528.238-.858-.158-1.881-.536-2.946-1.414-4.957-.788q-2.487.012-.995 2.371a10.877 10.877 0 0 0 1.722 1.883 16.893 16.893 0 0 0 3.054 2.083 10.777 10.777 0 0 0 9.7.252q.168.376.337.752c-2.433-1-5.311-.457-7.813-1.593-1.984-.9-2.85-2.488-3.879-4.348-.382-.692 1.3-.521 1.565-.036a8.793 8.793 0 0 0 7.265 4.67 12.829 12.829 0 0 1 3.526.617c.215.088.83.545.337.752-3.157 1.324-6.932 2.06-10.1.56-2.424-1.147-7.8-3.956-7.876-7.2-.083-3.515 4.229-2.235 6.145-1.618 1.149.37 4.745 1.106 4.692 2.736-.009.266-.574.265-.726.239a26.972 26.972 0 0 1 -6.771-2.287c-1.078-.5-.089-.972.664-.691 1.946.728 6.133 1.692 7.276 3.636.258.44-.379.523-.668.483a25.467 25.467 0 0 1 -4.255-1.127c-1.527-.494-2.946-1.817-4.492-2.084l.726-.36c.511 1.522 1.082 4.442 2.443 5.244.968.57.551-.434.431-1.229a6.055 6.055 0 0 0 -2.314-3.642l1.19.158c-1.159.615.665 3.589 1.357 3.8l-.953.2a20.96 20.96 0 0 0 -.857-3.9c-.752.593 1.177 4.5 2 3 .711-1.3-2.079-4.058-1.346-.752a5.013 5.013 0 0 0 1.458 2.592q2.8 2.5 4.148-.664-3.35-2.24-2.122.427a5.279 5.279 0 0 0 3.346-1.607 7.593 7.593 0 0 1 1.88-1.387 4.175 4.175 0 0 1 2.728.036c1.536.46 3.2 2.225.643 2.684-1.705.307-3.989-.778-5.582-1.211-1.227-.333-2.229-.476-3.082-1.437-.278-.314.245-.482.456-.494 2.724-.153 5.922-.158 8.334 1.276.174.1.454.366.259.578-.472.513-4.33 1.944-3.976 2.391l-1.109-.459c.621.007 1.913-1.042 1.288-1.668q-2.9-.3-.211 1.855l.789-1.668c-.9-2.29-5.359 1.463-4.768 1.883q4.506-.034-.374-1.846 2.274 3.192 2.175.968.487-1.751-2.175-1.02 1.175 2.477.947.692.3-1.218-1.221-.943-1.105-.684-.772.148a.716.716 0 0 1 .03.557 6.576 6.576 0 0 0 -.067-1.543c-.057-.431-.111-1.9-.544-2.063l1.112-.017c-.628.45-.3 1.412-.134 1.974.17.594-1.517.36-1.681-.211z" transform="translate(-376.87 -49.421)"/><path d="m393.6 168.053.188-.079c.437-.181 1.53.016 1.51.632a3.234 3.234 0 0 1 -1.264 2.555 1.245 1.245 0 0 1 -1.509-.512c-.217-.666.59-1.954 1.2-2.292a1.525 1.525 0 0 1 1.977.755 3.291 3.291 0 0 1 -.612 2.2 1.427 1.427 0 0 1 -1.8.737c-.3-.1-.737-.263-.728-.646a5.626 5.626 0 0 1 1.938-3.442c.666-.546 1.989-.387 2.143.582a4.464 4.464 0 0 1 -1.4 3.587c-.7.492-2.758.706-3.1-.387-.466-1.477 2.866-4.828 4.08-2.956.68 1.049-1.166 2.541-1.855 3.042a4.531 4.531 0 0 1 -4.076.786c-1.015-.249-.791-1.09.225-.841a3.1 3.1 0 0 0 2.77-.972 5.3 5.3 0 0 0 .871-.875c.338-.452.252-1.022.866-.806l.847.111c-.85.115-2.354 1.962-2.025 2.776q-.16-.177-.319-.355c-.022-.013.513-.5.609-.625a3.63 3.63 0 0 0 .495-1.067 7.323 7.323 0 0 0 .222-.85c.05-.252-.025-.889.459-.658l.846.111c-.335.055-.694.753-.871 1.013a4.293 4.293 0 0 0 -1.039 2.277l-.728-.646c-.545-.182-.417.093-.09-.382a3.446 3.446 0 0 0 .361-.758c.138-.373.4-.961.115-1.292l.67.4-.146-.044.781-.014a2.406 2.406 0 0 0 -1 1.743l-1.509-.512a2.889 2.889 0 0 0 .92-2.192l1.509.631-.189.079c-.5.208-2.032-.525-1.337-.813z" transform="translate(-361.588 -49.421)"/><path d="m362.045 86.611-.057-.96c-.234-.7 1.422-.151 1.623.088 4.15 4.928 2.221 16.026-.653 21.087-1.895 3.337-10.1 8.437-13.094 3.573-1.811-2.939.458-4.925 2.547-6.621a15.844 15.844 0 0 0 5.972-10.128c.23-2.024-1.525-7.9.716-9.293 1.322-.819 2.9-.027 3.768 1.03.466.569-1.218.46-1.565.035-1.172-1.432-1.418 2.157-1.432 2.452-.077 1.719.236 3.129.275 4.771a13.218 13.218 0 0 1 -1.063 4.941 15.528 15.528 0 0 1 -2.648 4.459c-1.387 1.68-3.692 2.718-4.816 4.516-1.853 2.962 1.094 4.783 4.147 4.134a8.267 8.267 0 0 0 3.98-2.3c1.968-1.961 2.944-4.862 3.474-7.533.889-4.474 2.037-11.273-1.173-15.085l1.623.087c.23.682.209.488.058 1.2-.123.576-1.811.156-1.682-.451z" transform="translate(-290.495 -49.421)"/></g></svg>