<svg height="43.093" viewBox="0 0 44.704 43.093" width="44.704" xmlns="http://www.w3.org/2000/svg"><path d="m396.45 582.532c2.426 8.614 8.826 14.628 18.034 11.278 8.113-2.952 15.794-11.864 15.564-20.81a13.151 13.151 0 0 0 -5.6-10.657c-1.815-1.166-4.364-2.054-5.757.124-2.047 3.2-.35 9.571 1.638 12.37a6 6 0 0 0 7.937 2.113c4.465-2.251 7.835-7.9 9.92-12.2 1.462-3.018 5.414-10.957.749-13.052-.5-.223-2.033.5-1.338.813 3.881 1.743.594 8.71-.547 11.277-1.7 3.831-4.224 8.142-7.465 10.88-6.816 5.754-9.9-3.578-9.86-8.561.016-1.712-.254-2.264 1.316-3.009s2.345.117 3.481 1.19a12.24 12.24 0 0 1 2.956 4.6c2.79 7.473-1.66 15.629-7.336 20.452-4.3 3.657-10.383 6.2-15.619 2.969-3.593-2.213-5.293-6.325-6.392-10.226-.165-.584-1.845-.132-1.681.45z" fill="#1a73e8" transform="translate(-396.439 -551.659)"/></svg>