<svg width="54" height="54" viewBox="0 0 54 54" fill="none" xmlns="http://www.w3.org/2000/svg">
<g clip-path="url(#clip0_2739_123)">
<path d="M8.93234 40.5529C7.53789 39.3003 6.27566 38.2324 5.09973 37.3256C3.92391 36.4189 2.83428 35.6734 1.78503 35.0656C0.199588 34.1472 0.199588 31.8731 1.78503 30.9547C2.83428 30.3469 3.92391 29.6014 5.09973 28.6947C6.27556 27.7879 7.53779 26.7201 8.93234 25.4674V40.5529Z" fill="#1F1C14"/>
<path d="M19.9522 32.1396C18.0659 30.4469 9.99262 27.3076 7.29999 27.6396C7.21369 27.8387 7.13181 28.04 7.05486 28.2435C6.49278 29.7319 6.18652 31.337 6.18652 33.0104C6.18652 34.6839 6.49289 36.2889 7.05486 37.7774C8.33424 41.1655 10.9385 43.9489 14.2705 45.5572C16.2618 46.5184 18.513 47.0598 20.8966 47.0598C20.9256 47.0598 20.9544 47.0588 20.9833 47.0586C20.4146 43.4909 19.9794 37.7906 19.9522 32.1396Z" fill="#F7E969"/>
<path d="M20.9835 18.9624C20.9545 18.9622 20.9259 18.9612 20.8969 18.9612C18.5133 18.9612 16.262 19.5027 14.2708 20.4638C11.139 21.9755 8.65034 24.5254 7.30017 27.6397C7.68153 28.2936 8.13758 28.9087 8.66657 29.471C10.5609 31.4853 13.2329 32.6406 15.9976 32.6406C17.1501 32.6406 18.5282 32.4599 19.9523 32.1397C19.9287 27.2344 20.2124 22.3661 20.9835 18.9624Z" fill="#F8D071"/>
<path d="M22.8695 31.0249C20.6611 30.4472 15.9716 30.6078 14.2796 32.4906C14.275 32.6634 14.271 32.8363 14.271 33.0103C14.271 36.4769 15.1972 39.6973 16.7832 42.3687C17.8912 44.2349 19.3222 45.8315 20.9834 47.0586C23.3349 47.0456 25.5558 46.5067 27.5229 45.5572C28.8609 44.9114 30.0812 44.0757 31.1458 43.0879C31.003 43.0432 24.2925 32.4949 22.8695 31.0249Z" fill="#1F1C14"/>
<path d="M27.523 20.4638C25.5559 19.5143 23.3349 18.9753 20.9835 18.9624C19.3221 20.1894 17.8912 21.7861 16.7833 23.6522C15.2768 26.1895 14.3673 29.2225 14.2797 32.4909C14.8441 32.5894 15.4187 32.6408 15.9974 32.6408C17.1727 32.6408 18.5823 32.4538 20.0365 32.1216C20.3512 33.3579 20.821 34.5344 21.4441 35.6421C23.5474 39.3814 27.0837 41.8224 31.1458 43.0881C32.7325 41.6159 33.973 39.8052 34.7386 37.7777C35.3007 36.2893 35.6069 34.6841 35.6069 33.0107C35.6069 31.3372 35.3006 29.7321 34.7386 28.2437C33.4592 24.8555 30.8549 22.0721 27.523 20.4638Z" fill="#1F1C14"/>
<path d="M29.5178 24.9226C27.9778 26.4626 24.9829 25.9072 22.2032 24.6838C19.9945 23.7119 17.9217 22.3182 16.8223 21.2188C15.5309 19.9274 14.9112 18.2187 14.9631 16.5268C15.011 14.9656 15.6308 13.4186 16.8223 12.227C18.014 11.0353 19.5609 10.4156 21.1221 10.3678C22.814 10.3159 24.5227 10.9356 25.8141 12.227C26.9135 13.3264 28.3071 15.3992 29.2791 17.6078C30.5025 20.3877 31.0579 23.3826 29.5178 24.9226Z" fill="#81DDFD"/>
<path d="M27.0672 13.7341C24.2834 15.63 22.1258 18.2803 20.8577 21.4177C20.5664 22.1384 20.3249 22.8776 20.1313 23.632C20.7891 24.0105 21.4886 24.3694 22.2031 24.6838C24.9829 25.9071 27.9778 26.4625 29.5178 24.9225C31.0578 23.3825 30.5024 20.3876 29.2792 17.6078C28.653 16.185 27.8519 14.8203 27.0672 13.7341Z" fill="#30CDFA"/>
<path d="M19.5635 28.4264C21.8796 26.093 23.0355 21.0662 22.8501 17.8192C22.6529 17.7347 22.4535 17.6529 22.2523 17.5747C20.0033 16.7002 17.5521 16.22 15.9973 16.22C14.171 16.22 12.5246 16.99 11.3649 18.223C10.2948 19.3608 9.63916 20.893 9.63916 22.5782C9.63916 24.2634 10.2948 25.7955 11.3649 26.9333C12.5246 28.1663 14.1711 28.9363 15.9973 28.9363C16.9385 28.9363 18.2089 28.7592 19.5635 28.4264Z" fill="#A3E6FF"/>
<path d="M27.5935 22.5778C27.5935 20.5547 25.427 18.9229 22.8502 17.8188C22.0485 18.9241 21.3782 20.1297 20.8577 21.4173C19.9735 23.6053 19.5336 25.9688 19.5636 28.4259C20.4465 28.209 21.365 27.9263 22.2525 27.5812C25.083 26.4808 27.5935 24.7558 27.5935 22.5778Z" fill="#81DDFD"/>
<path d="M52.1699 22.8056C50.8923 19.6444 48.4667 17.0708 45.1397 15.5852C43.1435 14.6938 40.8228 14.1941 38.2311 14.1941C38.1191 14.1941 38.0083 14.1962 37.8972 14.1981C29.1643 19.7969 29.2156 35.3383 39.2279 40.3938C41.1253 40.3099 42.9266 39.9868 44.5656 39.4376C47.7373 38.3747 50.3029 36.4683 51.7892 33.8257C52.6926 32.2198 53.1973 30.3421 53.1973 28.2166C53.1973 26.2987 52.8429 24.4706 52.1699 22.8056Z" fill="#F7E969"/>
<path d="M37.8972 14.1986C35.4399 14.2397 33.2323 14.7328 31.3224 15.5857C27.9955 17.0712 25.5699 19.6448 24.2921 22.8061C23.6192 24.4711 23.2648 26.2991 23.2648 28.2171C23.2648 30.3426 23.7695 32.2203 24.6728 33.8262C26.1592 36.4688 28.7247 38.3753 31.8964 39.4381C33.8202 40.0828 35.9669 40.4171 38.231 40.4171C38.5661 40.4171 38.8983 40.4089 39.2278 40.3943C34.3563 34.192 34.9258 21.1464 37.8972 14.1986Z" fill="#F8D071"/>
<path d="M34.0568 20.1514C33.6313 20.1514 33.2863 19.8066 33.2863 19.3809C33.2863 18.4516 32.9454 16.4015 32.1969 14.0966C31.7305 12.6609 31.1712 11.3454 30.5794 10.2928C30.3708 9.92181 30.5024 9.452 30.8734 9.24344C31.2444 9.03509 31.7141 9.16659 31.9227 9.53747C32.5728 10.6939 33.1581 12.0676 33.6625 13.6207C34.3592 15.7659 34.8272 18.0808 34.8272 19.3808C34.8273 19.8066 34.4823 20.1514 34.0568 20.1514Z" fill="#1F1C14"/>
<path d="M31.2511 11.6905C32.6006 11.6905 33.6945 10.5966 33.6945 9.24711C33.6945 7.89766 32.6006 6.80371 31.2511 6.80371C29.9017 6.80371 28.8077 7.89766 28.8077 9.24711C28.8077 10.5966 29.9017 11.6905 31.2511 11.6905Z" fill="#1F1C14"/>
<path d="M42.4052 20.1515C41.9796 20.1515 41.6346 19.8066 41.6346 19.381C41.6346 18.0809 42.1027 15.7661 42.7994 13.6208C43.3038 12.0677 43.8891 10.694 44.5392 9.53763C44.7478 9.16665 45.2174 9.03494 45.5885 9.2436C45.9595 9.45215 46.0911 9.92187 45.8825 10.293C45.2907 11.3456 44.7314 12.661 44.265 14.0968C43.5165 16.4017 43.1756 18.4517 43.1756 19.3811C43.1757 19.8066 42.8307 20.1515 42.4052 20.1515Z" fill="#1F1C14"/>
<path d="M45.211 11.6905C46.5604 11.6905 47.6544 10.5966 47.6544 9.24711C47.6544 7.89766 46.5604 6.80371 45.211 6.80371C43.8615 6.80371 42.7676 7.89766 42.7676 9.24711C42.7676 10.5966 43.8615 11.6905 45.211 11.6905Z" fill="#1F1C14"/>
<path d="M29.9359 32.1053C31.6263 32.1053 32.9966 31.0141 32.9966 29.6679C32.9966 28.3217 31.6263 27.2305 29.9359 27.2305C28.2455 27.2305 26.8751 28.3217 26.8751 29.6679C26.8751 31.0141 28.2455 32.1053 29.9359 32.1053Z" fill="#FFA1AC"/>
<path d="M46.5262 32.1052C48.2166 32.1052 49.5869 31.0139 49.5869 29.6678C49.5869 28.3216 48.2166 27.2303 46.5262 27.2303C44.8358 27.2303 43.4655 28.3216 43.4655 29.6678C43.4655 31.0139 44.8358 32.1052 46.5262 32.1052Z" fill="#FFA1AC"/>
<path d="M33.1766 27.7858C32.751 27.7858 32.406 27.4409 32.406 27.0153C32.406 26.6368 32.0981 26.3289 31.7198 26.3289C31.3413 26.3289 31.0334 26.6368 31.0334 27.0153C31.0334 27.4409 30.6884 27.7858 30.2628 27.7858C29.8373 27.7858 29.4923 27.4409 29.4923 27.0153C29.4923 25.7871 30.4915 24.7878 31.7198 24.7878C32.948 24.7878 33.9471 25.7871 33.9471 27.0153C33.9471 27.4409 33.6021 27.7858 33.1766 27.7858Z" fill="#425460"/>
<path d="M46.1993 27.7859C45.7737 27.7859 45.4287 27.441 45.4287 27.0154C45.4287 26.6369 45.1208 26.329 44.7424 26.329C44.3639 26.329 44.0561 26.6369 44.0561 27.0154C44.0561 27.441 43.7111 27.7859 43.2855 27.7859C42.86 27.7859 42.515 27.441 42.515 27.0154C42.515 25.7872 43.5142 24.788 44.7424 24.788C45.9706 24.788 46.9698 25.7872 46.9698 27.0154C46.9698 27.441 46.6248 27.7859 46.1993 27.7859Z" fill="#425460"/>
<path d="M38.231 30.1927C37.416 30.1927 36.641 29.8397 36.1048 29.2244C35.8252 28.9036 35.8586 28.4169 36.1795 28.1373C36.5003 27.8576 36.987 27.8912 37.2666 28.212C37.5101 28.4915 37.8617 28.6517 38.2311 28.6517C38.6006 28.6517 38.9521 28.4914 39.1955 28.2121C39.4751 27.8911 39.9617 27.8577 40.2827 28.1373C40.6034 28.4168 40.6369 28.9035 40.3575 29.2243C39.8211 29.8398 39.0461 30.1927 38.231 30.1927Z" fill="#425460"/>
</g>
<defs>
<clipPath id="clip0_2739_123">
<rect width="52.6014" height="52.6014" fill="white" transform="translate(0.595947 0.630371)"/>
</clipPath>
</defs>
</svg>
